<?xml version="1.0"?>
<svg xmlns="http://www.w3.org/2000/svg" version="1.2" baseProfile="tiny" width="800" height="1353" viewBox="0 0 800 1353" stroke-linecap="round" stroke-linejoin="round">
<g id="plateaux">
<path d="M 189.04 1331.23 170.03 1345.14 162.11 1344.31 147.79 1349.54 140.84 1350.16 138.64 1351.54 138.02 1344.17 139.12 1339.08 159.7 1319.66 159.5 1312.85 155.23 1301.83 142.35 1301.21 134.09 1304.58 124.59 1302.24 120.32 1299.97 118.26 1296.46 119.63 1295.15 107.31 1284.82 103.25 1290.68 98.98 1289.85 96.02 1288.33 93.19 1284.89 93.88 1282.96 93.06 1280.83 90.99 1280.21 90.58 1277.25 89.34 1276.7 89.34 1275.11 87.75 1274.56 86.93 1272.15 82.25 1273.67 83 1269.74 82.31 1268.92 84.72 1267.82 81.42 1266.3 81.63 1264.37 83.21 1263.62 82.87 1261.62 85 1259.97 83.83 1258.73 87.96 1248.12 86.58 1246.61 86.38 1242.48 87.27 1237.25 89.13 1236.08 86.79 1232.7 87.55 1231.6 87.27 1227.26 89.82 1224.16 90.51 1220.72 89.27 1218.93 91.06 1216.59 86.93 1212.25 88.58 1203.85 91.06 1200.69 91.89 1201.03 91.89 1199.51 86.17 1195.11 81.01 1193.73 79.63 1191.73 78.05 1191.32 74.53 1192.77 70.13 1187.88 68.89 1189.74 66.89 1189.19 64.55 1191.53 63.45 1191.05 62.97 1192.9 57.8 1186.5 55.19 1186.71 51.54 1183.82 44.58 1183.06 37.7 1174.18 41.62 1174.18 34.05 1168.32 35.5 1167.43 33.91 1164.61 36.53 1161.44 34.53 1158.69 37.01 1158.62 34.74 1154.76 40.59 1157.79 40.66 1156.07 41.9 1155.52 40.8 1153.66 43.28 1151.52 38.59 1149.67 36.8 1150.42 35.56 1149.39 36.87 1147.6 33.77 1146.02 33.84 1143.74 35.15 1143.4 35.22 1142.09 33.09 1139.54 30.33 1140.1 27.44 1136.31 26.34 1136.72 20.9 1132.87 18.83 1135.62 20.28 1137.13 16.35 1138.17 15.46 1139.61 10.3 1137.69 12.15 1133 10.23 1133.49 10.23 1117.51 18.08 1112 11.81 1104.7 12.09 1103.26 20.83 1100.85 27.71 1096.72 31.36 1084.19 31.57 1077.16 33.84 1073.38 29.3 1068.01 25.17 1066.29 22.76 1067.32 21.17 1061.81 19.31 1063.32 17.87 1061.74 6.16 1059.06 4.1 1054.86 6.44 1049.76 4.51 1045.9 6.03 1043.43 3.69 1041.29 3.82 1037.78 6.85 1037.3 12.5 1033.99 14.91 1028.28 21.72 1023.32 26.41 1021.81 27.16 1022.63 36.32 1018.98 41.83 1020.98 47.75 1017.33 53.88 1017.19 54.57 1014.71 53.12 1012.65 56.7 1008.38 59.04 1002.87 57.73 998.19 58.84 994.68 55.19 977.53 65.03 960.73 67.3 953.3 65.24 951.71 66.89 949.65 65.31 945.93 58.77 944 57.94 941.32 55.74 940.15 52.98 940.29 51.61 941.87 51.74 940.56 53.33 936.98 55.05 926.86 59.87 924.04 60.7 921.76 61.04 910.4 62 909.71 66.34 910.82 68.82 907.58 69.71 903.45 67.92 897.46 69.03 893.19 71.71 891.88 74.33 892.98 78.73 883.62 80.39 867.65 84.17 864.13 83.83 855.53 85.07 847.4 87.48 841.96 86.93 826.27 89.06 818.76 91.75 818.35 96.77 805.82 97.74 800.86 94.09 790.46 91.13 774.97 86.93 760.65 90.37 757.9 88.3 753.42 87.96 744.88 85.69 742.2 80.66 740.89 78.73 741.37 76.32 739.79 74.6 735.72 70.68 734.28 67.65 736.21 64.28 736.41 61.38 739.51 58.01 738.07 56.22 743.3 38.66 747.09 34.12 743.99 30.81 744.4 24.89 739.86 22.69 735.31 19.52 733.11 17.66 727.74 14.98 728.29 14.7 725.88 13.05 725.33 14.5 722.44 14.08 719.54 11.88 716.58 12.36 715 10.43 713.55 11.88 710.94 9.4 710.87 9.54 709.63 10.57 710.25 11.67 709.15 10.16 707.7 11.4 706.88 9.68 705.64 10.43 704.05 6.44 703.36 2.86 705.77 3.75 702.61 1.34 701.57 3.2 699.92 5.54 699.65 3.13 698.68 4.44 696.34 2.72 696.41 1.9 695.38 2.93 692.62 5.41 692 8.92 687.6 7.13 688.08 6.23 686.36 8.64 684.09 6.16 683.33 7.95 680.78 4.24 678.99 4.92 672.72 3.34 671.9 2.24 668.52 3.13 667.7 1.41 665.98 3.07 660.74 8.3 616.61 7.13 613.03 2.24 612.62 1 611.03 9.61 607.59 12.98 604.63 13.53 602.56 18.35 600.15 25.17 600.84 28.61 597.26 47.54 589.28 48.16 586.11 46.72 584.32 45.34 566.55 47.89 556.91 50.78 534.81 56.5 530.75 63.24 529.37 70.68 534.68 75.77 534.06 77.91 532.61 73.36 527.17 68.48 510.16 68.82 505.96 65.03 500.52 66.2 497.91 70.89 497.29 70.33 492.61 76.12 492.06 78.53 489.65 77.63 478.29 75.7 475.88 77.5 473.6 77.5 471.81 73.43 472.09 68.96 470.64 71.92 468.37 69.44 465.89 69.16 463.41 70.89 452.33 70.68 446.27 72.19 443.38 70.82 442.21 71.57 439.25 73.71 438.9 75.77 426.99 76.05 421.07 73.23 418.87 72.33 414.32 73.64 410.26 72.26 404.89 84.52 403.3 102.76 403.3 111.37 401.24 115.64 397.73 126.1 384.65 122.66 374.25 119.56 369.77 118.94 363.71 119.15 360.82 121.15 358.07 127 355.59 132.58 354.7 134.71 363.44 149.72 366.61 166.31 372.25 176.37 376.87 201.29 369.98 209.07 365.78 212.72 362.13 216.65 352.22 215.61 347.95 218.23 334.52 216.65 331.29 218.5 328.94 219.12 325.78 217.95 318.96 220.43 303.68 231.52 305.6 237.44 308.43 241.85 315.04 253.07 358.21 276.82 354.7 291.83 349.88 307.26 343.4 325.02 349.88 336.24 352.63 353.18 354.9 368.47 361.51 373.42 364.89 375.76 365.16 383.82 365.37 430.23 356.55 434.63 353.94 449.5 340.37 460.45 337.28 467.27 329.98 468.51 319.79 481.87 307.26 488.61 308.84 494.26 308.08 494.88 304.78 503.76 294.59 505.41 291.21 506.24 282.74 505.21 276.41 503.42 273.86 495.77 270.35 491.23 267.05 491.23 264.5 493.57 262.16 503.28 261.68 508.51 258.99 509.13 239.09 511.2 229.45 514.16 221.6 514.64 202.05 511.82 193.24 505.96 189.72 502.18 185.39 500.18 181.26 501.97 166.87 505.34 163.63 511.75 161.08 505.76 147.52 503.83 144.83 497.91 140.91 496.12 135.33 492.61 131.06 490.95 126.59 490.68 106.07 491.64 95.67 490.47 91.47 491.64 86.72 495.64 81.56 490.2 69.78 501.08 73.5 523.73 73.78 526.76 77.08 530.82 78.05 537.64 78.73 540.67 78.05 542.59 79.22 546.59 78.25 546.79 80.11 552.92 83.9 563.11 83.69 565.66 82.73 578.67 88.65 583.15 88.65 588.31 86.03 597.54 85.83 600.36 83.21 611.45 80.59 636.92 81.35 645.87 79.9 655.79 76.81 665.43 67.03 669.97 59.87 677.34 52.71 685.81 35.5 689.59 31.57 693.93 28.95 741.44 16.84 759.2 6.65 780.48 1 777.66 6.85 773.04 32.53 776.9 38.32 777.45 43.07 775.8 45.82 771.39 47.75 768.57 52.16 764.16 68.75 763.13 88.24 766.64 93.68 771.11 96.43 774.14 123.49 770.5 336.17 769.12 384.71 768.22 387.26 769.12 401.31 767.88 408.68 766.09 449.71 770.01 460.93 770.43 470.44 766.98 552.99 767.4 563.52 771.11 577.23 780.69 596.5 779.79 641.4 786.54 659.92 793.08 662.12 794.18 665.63 797.69 670.04 799 676.24 797.69 678.44 783.1 678.44 778.9 679.82 776 684.43 770.29 732.01 771.6 877.08 770.56 877.01 771.6 877.15 771.53 932.44 774.35 1022.98 750.8 1021.88 739.51 1022.98 737.03 1022.43 737.03 1020.5 716.51 1020.22 717.89 1029.38 717.55 1038.74 723.47 1045.97 728.98 1055.68 730.35 1081.57 715.83 1086.46 698.89 1116.13 690.28 1123.78 676.44 1131.35 667.08 1134.52 656.75 1135.9 647.04 1134.86 634.24 1129.63 622.46 1126.88 615.16 1126.46 611.58 1131.21 574.27 1143.68 557.67 1156.76 534.88 1172.39 528.82 1177.83 522.08 1186.85 511.75 1184.99 500.66 1180.79 497.63 1176.59 495.22 1177.62 491.02 1182.51 488.13 1188.7 483.79 1192.97 478.63 1193.32 462.52 1178.51 457.56 1178.1 449.5 1173.28 449.23 1171.63 444.69 1169.22 444.2 1166.95 435.87 1161.37 430.23 1160.61 424.17 1153.25 416.46 1150.77 404.68 1150.08 398.07 1143.81 396.28 1137.34 373.9 1116.55 355.66 1107.6 345.06 1112 330.73 1113.79 316.34 1117.24 305.19 1118.13 306.09 1136.58 307.88 1144.78 305.88 1148.5 289.49 1156.48 279.99 1163.99 270.21 1169.77 261.68 1177.21 263.33 1183.61 264.43 1195.45 263.81 1223.34 253.21 1224.99 250.04 1224.37 246.05 1229.05 240.47 1256.04 236.96 1261.28 232.69 1273.94 227.11 1279.45 223.39 1285.51 219.33 1296.94 217.2 1309.06 214.37 1317.8 208.8 1325.93 201.02 1327.99 191.93 1328.27 189.04 1331.23 Z" stroke="#000000" stroke-width="1" stroke-opacity="1" fill-opacity="0" fill="none"/>
</g>
</svg>