<?xml version="1.0"?>
<svg xmlns="http://www.w3.org/2000/svg" version="1.2" baseProfile="tiny" width="800" height="955" viewBox="0 0 800 955" stroke-linecap="round" stroke-linejoin="round">
<g id="savane">
<path d="M 559.74 945.41 553.93 946.92 551.43 950.55 505.73 935.14 503.99 931.13 501.57 930.07 498.93 923.73 498.93 917.53 501.95 915.57 506.33 909 507.92 903.48 502.4 897.36 498.02 898.27 492.36 905.07 487.07 904.84 485.41 900.99 476.94 895.85 465.76 900.01 461.38 903.1 454.36 900.69 452.62 896.46 447.56 893.66 431.77 892.07 427.84 887.92 425.65 878.7 429.12 871 428.9 865.1 423.61 853.92 417.94 845.99 418.09 844.55 421.04 842.97 420.81 839.72 422.55 834.96 421.64 826.42 425.04 817.58 424.67 815.02 408.35 799.6 397.02 796.88 385.16 796.28 377.98 790.99 376.01 785.55 375.71 776.94 379.11 770.44 380.32 763.12 384.1 756.54 383.34 750.5 376.32 740 374.35 733.8 376.39 729.8 376.69 723 374.96 716.28 378.28 709.4 378.13 699.13 381.91 695.12 382.66 692.71 381.45 682.96 382.51 665.81 384.7 660.45 391.12 659.47 398.07 653.8 398.07 651.76 396.41 650.17 391.05 648.96 388.71 645.64 390.59 644.81 391.43 646.77 392.41 644.88 391.12 643.83 391.43 642.84 393.69 642.69 395.35 644.05 394.37 641.11 395.81 638.31 400.26 636.27 398.83 635.59 398.98 634.38 402.98 630.98 405.4 632.12 409.63 630.68 410.39 628.19 408.95 623.35 402.3 622.22 397.47 624.03 393.92 623.35 386.67 626.07 380.77 625.85 376.47 623.58 372.69 628.34 363.4 627.28 360.9 625.39 360.15 627.58 358.79 627.51 358.18 625.47 355.31 628.94 352.52 626.6 350.48 627.58 348.59 625.39 353.35 623.96 353.88 619.12 360.98 615.72 364.53 616.03 364.98 615.19 361.74 606.58 358.79 606.43 357.66 604.24 355.39 603.86 352.14 608.4 347.99 605.52 348.82 597.44 347.08 594.12 347.31 588.75 345.49 584.67 342.7 583.01 342.17 580.37 338.54 581.58 337.33 579.08 328.95 576.29 331.14 573.27 329.48 572.36 333.1 570.62 336.5 565.49 336.58 556.42 335.07 555.44 334.92 551.36 332.57 551.81 331.97 550.45 328.87 551.66 327.21 549.02 327.89 547.66 325.85 542.59 324.11 541.99 322.07 543.8 320.49 542.37 319.58 544.26 315.95 542.82 314.07 546.83 311.19 546.75 311.42 549.17 313.08 549.47 312.55 550.9 309.46 551.74 309 550.53 305.91 552.64 304.92 551.21 299.26 551.58 298.13 548.49 296.09 548.94 293.74 546.6 292.23 547.5 289.14 546.6 288.61 549.24 286.42 548.41 280.9 541.99 277.73 541.01 274.18 541.61 276.44 539.8 273.87 538.51 272.21 541.23 268.66 542.22 268.59 544.48 269.8 545.84 264.81 544.71 267.98 554.46 265.72 555.36 265.64 553.17 262.24 553.32 255.37 556.65 252.95 551.51 253.63 548.26 252.12 544.63 249.7 545.62 247.43 541.16 244.86 539.5 242.3 540.4 240.33 537.16 237.91 536.4 238.9 533.38 235.72 527.33 237.54 526.13 237.91 524.39 238.59 524.77 238.37 523.48 240.11 523.18 239.8 519.93 238.14 518.57 237.08 519.78 234.21 518.19 233 515.4 231.95 516.23 232.02 512.98 227.87 511.47 226.51 509.2 226.51 507.77 228.62 507.39 230.06 502.93 228.4 500.06 226.43 499.83 226.96 498.4 225.6 496.81 226.51 494.62 223.64 492.36 224.54 489.86 223.26 486.84 223.86 485.1 220.92 481.93 221.6 479.74 219.86 475.28 221.14 472.86 218.8 471.73 219.86 470.67 218.73 467.73 219.48 467.05 217.52 462.89 206.41 460.32 198.71 451.79 155.42 436.45 155.19 428.37 152.24 419.91 142.2 411.82 142.12 409.78 140.61 408.88 140.99 406.23 108.43 397.17 107.45 396.11 105.03 396.26 104.8 395.28 100.87 395.43 97.85 391.27 97.93 389.69 69.67 384.17 64.23 381.98 56.6 361.21 56.9 355.54 55.7 351.69 50.56 339 41.34 325.02 41.49 322.9 43.83 319.81 51.99 318.45 54.64 316.86 53.28 308.85 55.85 300.17 54.34 297.29 53.43 288.91 56.83 283.54 54.64 279.01 58.49 276.37 60.98 276.97 66.88 266.7 72.32 262.92 75.41 262.09 76.55 257.1 80.85 252.57 86.07 250.76 87.5 244.94 93.02 241.47 91.73 238.37 92.64 232.4 88.18 224.24 87.2 214.12 88.03 210.42 90.83 206.56 89.92 203.01 91.28 202.86 90.07 197.8 90.67 194.85 96.26 188.58 95.89 187.52 98 184.81 97.93 181.18 99.89 179.21 100.12 176.65 98.53 176.12 104.05 169.77 102.99 168.86 104.27 167.28 103.89 165.24 100.57 162.67 102.16 159.8 100.42 152.09 100.87 147.64 104.2 146.28 103.97 140.69 105.63 140.16 106.24 136.08 104.88 135.02 105.41 132.75 128.52 126.03 130.79 121.35 133.36 119.53 132.68 117.87 135.4 110.84 131.47 102.61 128.15 57.74 112.81 42.78 111 37.87 111.37 33.49 109.26 30.61 105.71 29.1 106.69 27.06 106.09 23.82 98.68 21.62 98.53 20.11 96.19 18.9 94.9 18.83 93.24 20.94 88.56 21.02 80.48 26.23 79.27 25.78 77.23 28.57 75.11 29.25 74.96 31.6 72.39 33.33 68.69 40.21 61.36 39.76 58.79 41.34 55.62 39.98 48.67 41.72 44.51 39.53 38.09 40.36 33.56 38.17 31.14 34.09 23.06 30.54 19.81 30.31 15.5 26.01 7.35 24.65 2.21 25.78 1.3 24.72 2.28 22.68 1 15.5 2.66 12.03 8.4 7.42 7.8 1.68 9.61 2.21 10.29 1 22.68 3.27 39.15 7.57 68.46 10.44 104.88 17.85 136.61 21.17 185.94 35.07 220.16 41.42 254.31 51.16 311.19 62.34 330.01 67.18 381.23 71.49 422.55 80.55 445.89 87.65 490.47 95.66 489.56 102.01 481.02 115.15 483.74 116.81 492.88 116.81 494.92 122.03 494.47 141.06 488.13 153.15 516 137.14 525.82 130.03 544.56 121.35 549.62 121.12 556.27 123.39 571.6 116.81 592.61 105.56 616.63 107.14 649.57 106.46 669.97 108.13 750.5 107.14 755.26 108.81 765.61 108.81 788.05 106.69 790.54 108.35 799 107.9 789.86 139.93 789.41 146.96 782.3 165.54 782.98 170.98 790.31 190.7 778.38 209.89 769.84 251.51 765.53 260.13 741.96 290.5 733.35 311.19 731.91 317.31 729.04 323.74 725.49 328.42 723.76 338.39 719.07 421.64 715.22 438.49 707.89 456.09 704.64 468.26 701.7 473.47 700.86 495.38 695.05 549.47 695.88 559.74 694.75 569.79 731.91 595.55 759.26 618.29 790.99 641.64 780.26 654.03 772.33 668.3 764.4 676.24 757.3 678.58 743.85 688.93 731.16 733.27 724.89 743.78 720.81 745.97 717.03 744.61 709.7 730.78 699.96 725.12 697.16 724.74 694.52 727.31 689.91 728.67 679.64 722.92 666.34 730.25 663.62 733.5 667.93 739.77 667.4 745.14 670.95 751.1 669.06 754.96 642.17 733.8 637.1 734.48 629.78 743.1 626.3 752.24 620.26 753.97 617.61 776.71 628.57 798.7 628.79 820.53 622.3 831.71 621.92 839.87 618.22 848.79 613.83 854.15 600.54 863.06 595.93 869.03 603.71 869.33 621.77 873.72 619.43 891.17 613.38 893.36 615.12 899.4 613.46 902.88 605.68 910.13 605.45 912.24 607.41 916.63 621.77 930.6 625.7 945.71 624.03 953.34 623.2 954.17 621.09 950.62 617.84 948.96 612.93 949.26 607.64 953.64 604.01 952.96 597.59 942.69 594.27 940.35 588.83 941.03 582.86 948.73 563.52 944.43 559.74 945.41 Z" fill-opacity="0" stroke="#000000" stroke-width="1" fill="none"/>
</g>
</svg>