<?xml version="1.0"?>
<svg xmlns="http://www.w3.org/2000/svg" version="1.2" baseProfile="tiny" width="800" height="596" viewBox="0 0 800 596" stroke-linecap="round" stroke-linejoin="round">
<g id="pasted1">
<path d="M 351.94 594.88 352.16 594.74 352.16 594.88 351.94 594.88 Z M 633.2 512.02 629.17 514.07 613.27 516.12 610.86 517.52 602.72 518.54 595.76 521.62 585.43 523.01 586.61 531 586.02 531.8 583.97 523.45 574.44 524.26 560.82 527.11 542.06 533.2 517.66 538.47 507.26 542.57 495.24 544.4 473.04 552.1 446.67 559.28 433.41 565.36 421.98 568.44 420.37 570.05 419.93 575.76 418.76 570.41 417.29 570.85 416.92 572.9 414.87 574.52 415.68 576.93 407.91 576.93 407.99 578.4 421.17 578.18 417.95 578.4 417.88 579.79 399.78 580.67 388.79 582.58 353.55 593.42 352.89 564.99 354.06 553.78 270.17 553.05 264.68 550.56 262.63 546.82 263.43 543.01 265.41 546.38 266.73 542.57 259.84 533.78 262.85 534.15 256.47 521.33 255.96 516.12 247.54 505.65 242.77 505.57 234.13 501.98 233.76 499.93 224.97 488.5 220.43 478.98 218.89 466.16 213.17 461.32 211.27 448.72 213.25 440.96 212.15 433.92 210.61 431.36 128.7 430.77 125.7 425.86 124.52 419.93 122.25 416.12 117.86 412.82 115.37 407.84 108.26 403.15 106.21 398.75 90.02 386.15 79.98 380.51 51.7 373.7 47.67 358.24 23.64 348.2 20.49 340.73 21.66 322.05 11.18 321.39 3.49 308.79 1 297.94 3.34 296.48 10.74 295.82 25.98 290.25 34.41 291.13 45.03 284.24 57.71 273.18 73.09 271.64 75.66 270.69 78.07 267.76 82.84 258.67 85.11 246.22 91.19 227.68 95.15 221.23 101.08 215.37 105.62 201.89 109.36 196.32 115.29 167.6 119.54 162.62 122.91 163.28 134.2 161.52 134.85 131.85 133.68 119.25 131.92 112.44 141.01 104.52 151.41 98.37 161.52 90.38 178.96 81.88 181.08 77.93 179.18 69.21 178.23 49.57 190.1 48.62 205.41 44.96 220.65 43.05 231.93 38.37 234.35 39.17 251.35 47.89 275.16 70.02 277.06 76.9 284.1 83.57 296.62 84.3 304.83 86.94 311.28 94.78 317.28 95.58 323.73 99.47 326.15 101.52 326.66 103.94 331.5 106.5 331.79 108.26 340.36 113.39 345.64 113.83 359.41 127.02 362.78 129.58 365.35 130.02 368.28 129.21 372.89 124.67 375.97 118.08 380.44 112.88 383 111.78 386.23 116.25 398.02 120.71 409.01 122.69 416.19 113.1 422.64 107.31 446.89 90.68 464.55 76.76 504.26 63.49 508.07 58.44 515.83 58.88 528.36 61.81 541.99 67.38 552.32 68.48 563.31 67.01 573.27 63.64 588 55.58 597.16 47.45 615.18 15.87 630.64 10.67 629.9 1 634.15 5.54 641.7 9.79 650.79 12.8 651.08 19.32 649.83 24.08 651.81 29.35 644.26 36.68 643.02 40.93 648.37 51.77 646.68 67.08 649.69 70.6 656.72 69.36 657.97 71.85 646.17 81.22 644.7 85.77 645.95 90.02 653.5 90.46 655.25 91.78 656.79 96.76 654.3 102.54 653.06 112.14 663.17 116.39 665.95 119.91 662.07 123.06 660.24 126.5 662.29 130.31 661.26 133.32 647.05 144.67 641.77 144.67 640.38 151.12 641.26 159.18 639.43 161.6 635.77 162.62 633.2 168.63 629.76 168.26 627.78 171.85 630.64 174.2 639.8 175.3 642.29 181.74 649.76 188.41 655.4 206.51 649.17 209.95 649.17 214.79 654.45 218.74 656.5 224.82 656.06 229 662.95 236.03 666.76 234.64 671.23 235.01 673.79 236.62 677.01 249.37 678.92 251.05 688.15 253.25 692.91 248.56 698.41 247.61 701.34 249.37 702.44 251.93 701.34 256.77 695.62 263.8 697.09 267.83 698.85 269.22 708.52 265.85 711.23 270.98 717.53 271.13 719.14 275.01 717.09 278.89 721.63 283.66 722 300.73 717.97 300.73 715.99 303.14 717.02 309.96 724.56 312.01 729.4 310.03 734.53 313.62 736.8 309.08 739.22 308.93 741.49 313.11 742.44 319.34 746.03 320.51 747.79 324.17 745.08 327.54 746.84 329.01 750.06 328.71 757.46 336.55 759.07 339.78 760.1 343.15 759.14 346.52 759.73 350.4 762.51 358.9 767.72 363.59 773.5 364.54 776.21 361.98 779.44 363.88 779.29 367.91 777.02 370.62 775.63 370.62 775.41 374.14 771.16 375.09 770.94 384.1 774.68 387.76 772.11 389.6 773.28 397.95 780.24 402.56 785.74 420.22 784.57 424.62 780.83 428.13 783.98 433.41 787.94 435.68 792.33 446.89 791.97 451.8 785.96 454.73 790.28 461.47 797.53 463.37 799 466.74 799 469.6 795.34 471.21 791.45 472.24 777.83 472.24 768.08 477.95 754.82 478.54 749.11 483.01 736.72 482.2 731.01 486.53 726.32 486.89 722.51 485.65 715.77 489.16 708.81 486.89 704.78 487.92 700.09 493.19 696.43 494.66 688.52 493.41 676.06 501.18 668.52 503.38 669.03 504.33 660.02 505.43 654.74 506.89 651.74 509.16 648.07 509.16 637.08 512.46 633.2 512.02 Z" fill-rule="evenodd" stroke="#000000" stroke-width="5" stroke-opacity="1" fill="none" fill-opacity="0"/>
<path d="M 775.63 370.62 775.41 374.14 771.16 375.09 770.94 384.1 774.68 387.76 772.11 389.6 773.28 397.95 780.24 402.56 785.74 420.22 784.57 424.62 780.83 428.13 783.98 433.41 787.94 435.68 792.33 446.89 791.97 451.8 785.96 454.73 790.28 461.47 797.53 463.37 799 469.6 791.45 472.24 777.83 472.24 768.08 477.95 754.82 478.54 749.11 483.01 736.72 482.2 731.01 486.53 726.32 486.89 722.51 485.65 715.77 489.16 708.81 486.89 704.78 487.92 700.09 493.19 696.43 494.66 688.52 493.41 676.06 501.18 668.52 503.38 669.03 504.33 660.02 505.43 654.74 506.89 651.74 509.16 648.07 509.16 638.33 512.46 637.74 511.66 636.87 512.61 633.2 512.02 629.17 514.07 613.27 516.12 610.86 517.52 602.72 518.54 595.76 521.62 585.43 523.01 586.61 531 586.02 531.8 583.97 523.45 574.44 524.26 560.82 527.11 542.06 533.2 528.87 535.47 507.26 542.57 495.24 544.4 489.97 546.6 487.19 546.82 486.09 543.01 487.77 531.44 495.54 527.63 499.13 519.57 504.26 497.52 504.4 492.46 512.17 495.54 545.65 518.1 554.3 521.03 556.49 521.18 558.91 515.76 563.6 512.9 589.32 507.92 593.64 506.01 597.01 507.92 598.69 510.7 607.56 510.92 610.49 509.68 616.72 509.75 632.54 507.04 635.99 507.63 634.52 489.16 630.71 489.38 626.68 483.96 621.41 471.87 617.52 469.97 623.68 463.37 628.81 460 647.78 458.25 642.8 427.77 644.41 419.34 650.57 421.25 650.93 420.22 650.49 414.95 651.59 410.7 650.27 407.33 652.18 396.78 653.72 397.07 655.33 400.95 658.4 401.25 661.7 403.96 668.59 403.88 671.67 410.55 679.51 414.43 685.37 415.53 685.88 412.02 683.61 405.28 691.81 396.41 696.8 393.41 703.39 390.55 710.5 389.89 712.4 390.92 716.65 390.26 718.26 393.04 722.37 391.5 724.86 385.79 736.51 384.54 742.73 377.58 746.18 377.58 760.98 381.61 762.59 378.83 764.86 365.71 769.11 366.66 769.99 370.18 775.63 370.62 Z" stroke="#0d1d0d" stroke-width="1.5" stroke-opacity="1" fill="#e0d91f" fill-opacity="1"/>
</g>
<g id="pasted2">
<circle cx="642.88" cy="508.9" r="15" fill="#b61010" fill-opacity="1" stroke-opacity="1" stroke-width="1" stroke="#013c06"/>
</g>
</svg>