<?xml version="1.0"?>
<svg xmlns="http://www.w3.org/2000/svg" version="1.2" baseProfile="tiny" width="800" height="984" viewBox="0 0 800 984" stroke-linecap="round" stroke-linejoin="round">
<g id="pasted1">
<path d="M 766.98 542.1 783.39 534.3 786.76 545.87 789.11 566.12 790.46 569.89 790.19 584.68 791.53 595.99 790.19 602.98 792.07 612.13 792.34 629.96 795.57 643.41 799 650.47 782.72 660.7 779.69 663.99 775.59 676.24 774.78 687.27 771.02 687.27 768.59 689.69 763.48 699.44 751.64 698.91 732.27 703.48 719.35 700.79 715.52 698.43 701.53 701.06 688.68 705.56 677.98 710.81 673.95 714.58 662.51 718.82 658.21 716.39 654.44 710.27 645.76 710.34 641.19 714.51 637.42 716.13 632.31 721.78 628.54 723.12 604.06 718.55 597.33 715.86 576.81 713.97 568.74 715.59 548.7 725.07 540.96 725.88 533.22 725.07 521.12 730.12 516.68 733.95 516.68 737.18 513.51 742.29 511.29 750.57 511.36 760.46 513.04 776.33 512.84 796.38 515.13 805.59 521.92 818.31 523.27 822.48 522.66 826.24 521.39 828.87 516.41 832.23 510.15 833.44 505.11 838.69 504.57 843.26 498.72 850.73 487.28 858.33 456.74 862.57 451.36 864.18 431.25 866.27 414.9 860.28 401.45 859.74 393.11 857.59 381.87 851.94 377.03 851.6 374.47 844.34 373.46 835.12 368.96 832.57 364.79 833.24 357.45 838.69 351.06 838.08 342.65 833.04 334.38 841.72 328.73 856.72 325.9 859.61 322.68 859.94 320.12 860.89 313.39 858.8 309.36 860.15 299.54 876.96 295.84 880.33 289.51 879.52 280.57 881.2 277.34 885.37 274.85 892.37 273.64 904.14 261.26 916.99 243.37 923.78 241.48 925.67 237.31 932.06 237.99 937.17 243.16 939.05 246.06 941.88 247.07 948.54 245.99 949.88 240.61 951.7 225.14 950.35 220.76 952.71 218.41 955.4 214.51 965.02 211.35 968.85 201.46 973.09 186.46 975.65 184.98 982.57 183.5 981.09 182.29 976.32 187.2 971.54 189.75 971.41 190.36 966.36 192.11 965.82 197.09 967.84 198.77 966.56 199.31 963.67 196.41 960.11 198.43 954.66 201.39 952.1 202.06 952.98 203.34 950.35 201.79 947.53 199.91 946.86 199.78 942.89 198.36 942.55 197.02 938.65 195 937.1 195.14 935.02 193.12 934.28 193.39 926.54 190.83 923.98 191.7 923.31 191.17 922.1 194.4 918.54 193.39 916.11 194.73 912.21 191.1 907.44 191.44 905.75 189.82 902.79 180.94 897.48 164.53 863.64 164.93 855.84 161.37 853.29 159.75 848.91 160.02 845.82 154.91 844.81 155.45 831.69 159.69 831.56 160.83 820.32 157.53 820.05 170.38 802.03 175.36 802.36 174.48 800.88 174.89 796.85 176.3 793.89 173.68 789.45 174.95 785.82 172.47 780.03 172.53 777 171.52 776.53 172.13 774.04 169.3 771.69 170.78 770.34 172.06 770.81 172.67 768.86 176.7 766.78 177.38 767.38 178.86 765.16 182.09 763.75 183.57 764.9 185.31 764.69 185.45 765.64 186.86 765.23 188 760.86 192.78 758.37 194.6 755.21 194.26 752.65 195.88 748.35 197.22 747.67 199.64 742.29 199.58 738.66 201.59 737.58 201.79 736.04 203.14 735.77 211.15 725.14 203.48 720.57 197.56 714.51 196.62 710.61 195.14 709.2 190.22 697.49 195.54 685.25 212.15 666.15 210 665.74 211.55 662.72 225.07 663.12 227.69 655.32 227.22 650.47 223.66 646.3 220.36 636.21 227.29 630.29 229.64 595.92 226.89 593.5 223.52 592.69 222.18 584.68 220.7 583.68 217.67 584.89 216.39 583.68 210.74 582.6 209.13 580.04 207.24 580.78 206.17 580.18 206.5 578.76 203.21 579.24 201.32 578.43 200.45 577.35 200.79 575.2 198.03 572.98 194.4 574.39 192.78 573.85 190.7 575.4 190.22 574.06 188.61 574.32 188.81 573.45 187.4 572.78 186.46 574.73 185.25 574.53 184.04 571.03 185.05 570.63 182.02 568.88 182.96 566.99 181.55 564.77 183.3 564.1 183.7 562.15 187.53 560.67 188.68 554.28 187.94 553.34 186.66 553.88 187.06 553.07 185.31 551.18 187.27 549.97 186.93 549.03 183.23 547.42 183.03 546.01 180.61 545.13 180.94 544.39 179.73 544.32 177.51 541.3 172.6 542.37 171.79 540.83 170.85 541.7 167.62 538.87 163.12 539.55 161.77 538 160.29 539.01 158.95 536.92 159.48 536.18 156.99 536.65 156.99 534.77 155.78 533.76 152.35 533.49 148.52 531.41 137.76 533.76 136.34 532.48 129.41 532.35 129.35 531.21 128.07 530.74 126.86 532.96 125.78 532.42 125.24 534.37 123.29 534.37 122.76 536.39 118.79 535.51 117.78 536.99 116.9 536.12 115.96 537.39 115.22 536.72 110.51 538.07 108.16 536.59 106.95 538 101.83 536.99 90.4 532.96 87.37 536.45 84.21 537.13 84.28 538.87 79.7 540.29 80.44 543.05 82.66 544.79 82.53 547.35 79.97 555.22 78.9 555.69 78.02 560.54 75.6 564.77 73.72 565.31 73.04 564.37 71.5 567.19 70.62 566.12 68.47 568.2 65.24 566.66 63.83 568.61 58.85 568.54 53.33 571.9 53.54 573.85 50.85 573.59 49.84 575.4 48.83 574.8 45.13 575.87 43.65 577.35 42.91 576.48 41.83 579.17 41.29 577.76 40.02 579.64 35.51 580.11 34.77 579.1 34.23 581.19 32.68 581.32 31.67 579.98 29.39 580.51 30.06 578.43 27.17 579.17 27.5 580.11 24.21 580.51 22.66 579.03 23.53 577.62 22.73 576.68 14.59 573.92 14.52 570.36 2.35 557.24 1 546.95 2.35 541.23 6.38 540.42 19.57 547.08 30.13 546.07 34.1 540.02 42.84 539.48 44.25 537.06 55.62 531.27 57.3 529.59 57.24 526.5 53.67 521.65 46.74 517.82 40.49 515.8 20.98 519.77 14.79 518.09 11.96 516.27 8 509.75 6.31 499.46 9.27 490.24 9 483.71 9.88 482.17 12.23 481.09 18.96 482.17 27.23 487.15 30.87 486.07 33.69 483.24 43.24 480.55 49.23 481.43 56.5 480.15 62.75 481.36 67.46 479.21 73.45 479.14 78.02 480.08 80.85 483.11 85.15 483.51 96.25 480.49 102.78 475.44 105.94 471.4 104.12 466.76 99.21 459.63 103.52 445.57 105.47 434.95 101.97 435.89 101.16 433.47 102.1 431.25 100.76 430.84 101.09 428.89 99.41 428.49 98.81 429.77 96.79 430.04 97.46 427.68 95.78 427.61 95.38 424.72 94.1 424.32 96.18 420.68 94.64 418.8 94.23 419.61 92.48 419 92.82 415.77 89.66 414.03 88.92 414.7 85.89 413.35 84.35 414.09 84.88 402.59 81.12 388.13 75.8 383.55 66.18 382.68 62.89 379.25 67.12 370.7 70.42 358.33 70.35 354.22 67.39 348.37 68.47 347.36 71.83 347.43 74.12 345.01 73.31 340.77 70.82 336.26 71.5 331.42 77.48 326.38 77.42 318.98 83.13 313.33 85.82 304.58 89.39 297.99 86.56 283.93 86.9 281.78 84.82 275.18 85.96 270.68 84.88 260.52 86.83 249.96 91.07 242.96 103.05 240.07 108.49 237.72 108.23 229.44 100.69 224.33 96.05 218.75 91.68 209.93 89.12 201.32 88.78 197.62 91.74 192.85 93.29 187.67 93.22 184.51 90.87 178.92 90.8 176.3 92.69 173.07 94.64 172.74 101.23 177.91 111.39 178.05 114.82 179.13 118.92 182.35 123.02 181.68 122.89 182.96 127.93 190.02 132.64 199.98 132.85 205.23 129.75 212.09 131.7 220.29 135.2 223.99 149.26 225.41 153.77 227.89 155.31 231.66 161.57 233.81 165.47 231.06 175.43 227.36 182.96 231.93 184.44 235.36 189.15 235.56 194.19 229.51 198.1 228.7 203.01 234.15 201.59 239.06 197.69 244.91 195 246.66 195 252.18 197.36 257.83 199.51 258.77 201.05 262.34 241.75 276.06 243.97 272.83 252.51 270.61 269.74 274.44 275.05 267.58 279.89 266.98 282.85 269.06 288.57 278.21 291.8 278.82 296.51 274.92 300.88 274.65 303.77 276.13 305.66 279.29 307.88 271.75 304.38 258.3 291.6 245.86 289.85 241.95 290.05 240.07 296.98 233.61 298.46 230.52 296.91 225.14 302.29 223.19 304.38 207.65 288.3 203.75 281.37 203.48 285.48 198.16 297.32 190.22 301.22 185.45 304.51 177.51 304.85 170.25 310.63 160.29 310.43 140.85 300.68 121.28 303.03 101.03 308.41 99.48 311.51 91.34 318.03 83.67 322.54 83.07 346.49 101.9 348.17 98.47 345.01 93.16 345.48 88.38 341.65 82.8 344.07 79.91 355.91 73.38 365.05 78.49 369.16 77.28 371.51 74.99 374 75.33 382.68 80.38 389.2 92.69 392.57 93.9 396.2 91.95 401.78 82.6 413.08 43.11 425.06 33.89 431.38 31.81 438.44 24.75 445.51 12.03 455.06 1 489.57 26.56 519.03 51.32 521.18 48.09 766.11 187.94 767.45 194.53 767.99 213.5 765.97 272.9 767.65 315.01 767.92 363.71 765.57 399.76 769.94 423.71 767.79 431.58 767.79 457.41 751.58 501.61 755.07 507.8 762.88 527.17 762.34 539.01 763.82 541.16 766.98 542.1 Z M 98.27 456.27 98.27 456.14 98.07 454.79 98.4 456.61 98.27 456.27 Z M 97.4 452.57 97.6 452.91 97.13 452.3 97.4 452.57 Z" fill-rule="evenodd" stroke="#000000" stroke-width="1" stroke-opacity="1" fill-opacity="0" fill="none"/>
<path d="M 766.98 542.1 783.39 534.3 786.76 545.87 789.04 563.36 786.96 562.01 782.32 562.01 773.98 558.52 769.4 558.79 755.41 563.97 749.49 558.25 745.99 557.44 743.3 558.25 741.89 573.72 739.54 575.27 718.41 579.98 675.63 570.02 664.6 569.75 657.87 574.59 655.99 579.17 650.07 584.82 644.69 586.97 637.76 587.37 636.68 588.52 633.18 588.79 628.14 593.43 620.94 594.24 609.91 591.55 606.14 595.31 602.38 596.12 598.34 600.69 590 605.54 585.96 613.07 585.96 620.07 584.08 624.71 575.2 622.29 573.05 616.84 568.14 611.73 566.25 605.81 560.06 598 557.1 597.73 554.95 593.29 549.03 595.58 542.04 595.85 528.58 591.55 522.13 584.55 513.25 568.14 510.55 564.37 507.06 564.64 504.9 560.06 507.6 552.46 510.55 549.5 513.25 542.24 510.82 539.55 512.71 537.93 512.44 534.97 508.94 531.48 510.55 526.9 514.59 520.44 519.7 518.29 525.89 508.87 526.43 494.07 528.31 485.93 526.43 469.52 511.36 463.06 504.03 461.45 498.65 457.95 493.54 449.88 488.42 448.53 480.35 449.07 474.16 451.76 462.86 442.61 465.28 434.54 473.69 432.99 489.77 433.87 505.51 437.57 507.73 437.23 508.81 438.78 511.77 437.7 516.14 438.98 522.39 438.58 545.67 434.47 549.97 432.05 559.66 423.24 566.52 423.04 575.4 424.79 584.21 424.12 590.27 420.89 596.25 415.3 609.44 400.44 623.23 401.92 626.79 400.91 629.01 398.15 631.44 390.89 636.88 382.81 650.34 368.82 654.24 363.04 670.05 372.12 677.04 386.45 683.77 386.78 684.44 390.48 697.69 402.99 704.76 405.15 720.9 413.49 726.82 422.37 725.75 443.42 727.9 449.07 731.66 452.57 731.66 454.45 733.82 457.68 738.12 460.37 743.44 461.11 743.5 465.08 739.74 466.02 729.78 466.56 720.36 465.75 716.6 477.86 707.99 493 703.41 506.72 763.95 541.43 766.98 542.1 Z" stroke="#0d1d0d" stroke-width="1.5" stroke-opacity="1" fill-opacity="1" fill="#e0d91f"/>
</g>
<g id="pasted2">
<circle cx="653.87" cy="495.47" r="5" fill="#d93030" fill-opacity="1" stroke-opacity="1" stroke-width="0"/>
</g>
</svg>