<?xml version="1.0"?>
<svg xmlns="http://www.w3.org/2000/svg" version="1.2" baseProfile="tiny" width="800" height="898" viewBox="0 0 800 898" stroke-linecap="round" stroke-linejoin="round">
<g id="pasted1">
<path d="M 157.22 891.12 156.1 890.93 156.41 890.81 157.22 891.12 Z M 159.79 890.74 159.6 886.24 162.41 882.74 159.1 881.11 161.79 879.8 158.85 876.05 159.22 871.92 155.47 868.92 157.41 863.73 156.16 862.73 157.1 860.85 155.53 859.04 157.22 855.85 157.04 852.78 155.1 851.97 155.28 850.66 152.91 851.03 153.66 848.09 152.34 846.65 152.78 842.53 151.53 841.15 153.03 837.96 151.91 832.02 150.72 831.15 151.34 828.96 150.09 825.77 156.28 824.45 156.03 820.26 155.6 819.01 153.91 819.33 150.53 817.2 150.97 816.14 148.22 812.38 143.28 813.32 141.34 812.45 141.34 810.19 138.52 804.38 140.9 801.38 139.71 798.87 141.53 796.25 141.46 792.87 140.52 790.12 138.96 791.56 137.65 791.43 135.83 779.3 132.83 770.98 134.21 764.79 135.58 765.54 137.15 764.79 136.96 756.66 138.65 749.66 136.84 744.09 137.27 742.4 146.53 742.53 149.28 732.96 148.15 724.77 146.59 721.58 149.16 720.33 150.91 716.7 150.53 714.13 146.53 716.14 144.21 715.89 142.78 713.07 135.83 707.38 135.96 699.44 144.65 695.56 147.65 695.5 148.84 694.12 150.34 695.31 154.16 694.81 154.03 692 158.1 688.68 158.72 684.8 157.6 681.86 163.41 676.61 166.17 676.05 166.17 671.48 165.1 669.92 166.54 666.35 171.98 667.1 183.86 666.35 188.18 667.36 193.43 662.85 194.25 657.6 193.12 656.35 194.06 654.47 197.69 653.1 221.26 653.28 221.89 650.53 224.14 648.78 223.39 647.03 224.33 645.28 223.08 635.4 224.14 632.08 222.76 631.65 223.76 630.89 223.14 627.83 222.08 627.64 223.83 626.58 222.89 624.14 223.14 621.01 221.58 618.7 223.14 616.01 222.39 614.45 218.95 613.7 215.76 614.63 215.45 613.51 217.32 610.82 213.76 609.51 213.2 610.51 211.07 609.26 211.19 607.57 212.51 606.69 211.26 606.38 210.69 605 211.63 604.13 210.63 602.19 212.01 600.13 210.38 599.25 211.01 596.94 209.88 596.56 212.32 593.75 210.01 593.25 211.76 592.06 209.76 589.24 210.69 588.56 204.06 586.18 208.44 583.62 208.19 582.61 200.56 582.36 201.75 580.24 200.63 579.11 202.31 576.49 199.75 576.8 197.44 575.8 196 572.17 191.68 573.05 189.12 571.61 186.87 568.67 180.05 566.42 176.11 566.67 174.61 565.42 175.48 563.41 174.73 561.66 176.05 561.23 174.8 560.66 174.48 558.29 174.48 557.22 175.67 556.79 174.86 553.97 175.8 552.35 174.42 548.97 174.73 546.78 177.11 546.09 177.11 544.53 174.05 541.28 174.36 538.9 172.86 536.71 172.8 534.15 170.36 532.08 170.92 524.95 171.86 523.2 170.54 520.51 167.04 518.01 160.91 518.82 158.54 514.95 160.73 511.76 155.47 509.07 149.59 508.69 145.53 507.19 143.34 505.32 136.58 506.19 134.08 501.56 132.83 501.13 132.39 498.75 126.77 498.81 124.51 500.38 124.14 496.06 120.57 492.5 120.07 488.68 117.26 485.43 114.95 485.37 113.32 483.18 109.82 483.3 106.19 481.61 102.06 478.36 101.25 474.86 98.19 472.86 94.87 475.23 88.43 475.86 84.68 470.92 81.05 469.67 80.36 470.79 79.42 470.23 80.61 467.73 80.11 465.73 78.36 464.23 77.05 458.1 74.55 455.66 69.23 455.91 68.42 454.97 66.67 456.22 67.23 457.97 61.98 454.28 6.82 366.17 7.5 363.23 1 357.6 15.13 357.91 17.89 355.78 16.63 352.97 15.01 355.85 14.82 353.1 10.44 352.91 3.94 346.65 5.88 342.78 4.63 338.71 4.56 333.83 5.75 333.15 7.38 334.58 10.26 334.65 12.01 331.83 13.32 331.52 14.95 331.89 13.32 333.27 15.76 335.15 18.95 332.9 26.52 333.4 32.21 335.46 31.71 340.28 33.15 341.59 38.46 338.46 40.9 338.96 42.09 338.02 42.9 335.83 41.78 333.27 40.27 332.46 36.52 334.9 35.71 333.96 36.02 331.46 37.4 329.58 44.09 327.77 47.03 322.26 53.85 322.39 54.16 327.7 56.78 328.39 60.1 333.96 61.23 333.08 61.35 330.27 62.41 329.21 67.85 330.14 73.98 328.83 79.8 320.07 76.8 315.95 77.74 311.76 80.61 310.82 79.8 309.76 81.18 303.31 95.12 300.94 104.31 297 107.25 293.43 110.88 284.49 113.07 281.99 117.14 279.8 131.52 281.05 136.52 279.36 137.52 278.11 136.58 271.92 133.9 269.29 129.08 267.54 128.45 262.79 132.33 256.85 134.08 255.1 150.72 248.78 162.23 236.84 163.35 225.89 165.67 219.39 168.67 215.51 176.99 213.95 182.86 214.7 186.3 211.57 195.43 195.93 199.19 194.68 205.44 196.62 210.82 195.43 213.45 192.75 218.7 178.8 226.39 170.73 234.21 175.42 240.15 175.98 246.97 170.92 250.84 170.29 255.03 172.67 255.97 181.24 258.35 187.99 262.85 188.3 273.3 193.56 281.05 195.56 293.56 196.06 308.76 201.63 327.45 199.69 332.46 198.19 360.85 194.25 371.48 187.18 376.92 180.24 377.42 175.98 382.11 171.11 387.93 169.98 392.56 166.85 393.75 164.41 394.31 160.91 393.06 157.04 386.74 145.22 384.62 136.65 384.8 118.01 383.18 94.06 385.24 86.37 388.18 81.61 388.18 78.61 396.5 72.67 403.56 70.36 410.76 71.11 417.95 70.36 436.59 61.54 444.09 60.04 463.16 61.79 469.42 64.29 492.18 68.54 495.68 67.29 500.44 62.04 503.94 60.54 508.19 56.66 516.26 56.6 519.76 62.29 523.77 64.54 534.4 60.6 538.15 57.1 548.09 52.22 560.04 48.03 573.05 45.59 576.61 47.78 588.62 50.28 606.63 46.03 617.64 46.53 622.39 37.46 624.64 35.21 628.14 35.21 628.89 24.95 632.71 13.57 635.52 10.51 650.66 1 655.91 12.01 673.92 29.52 679.99 40.02 681.3 44.65 689.68 53.35 695.81 57.41 702.56 65.79 721.51 84.87 736.9 93.43 742.21 97.69 754.47 121.45 766.42 134.52 778.67 159.16 777.36 164.73 782.93 177.61 786.37 204.57 782.49 219.76 783.8 221.26 781.43 231.96 788.06 291.31 785.74 309.94 787.24 315.95 788.62 331.46 787.43 404.38 785.49 424.33 791.06 511.07 798.37 522.39 799 530.14 779.86 535.33 763.73 544.59 720.58 555.6 716.64 557.97 713.2 561.54 705.5 577.17 698.81 583.68 694.68 590.18 685.93 599.06 676.92 601.88 668.79 603.19 645.65 602.5 635.59 604.88 633.02 607.25 624.64 607.44 619.95 609.82 615.89 609.82 604.07 604.44 601.75 605.32 592.5 605.5 586.93 602.06 586.74 600.38 583.11 601.25 581.36 600.19 578.61 600.81 572.42 600.19 568.73 599.31 565.98 596.31 545.4 596.06 535.52 592.68 540.46 603.38 536.84 608.07 535.77 612.38 536.84 616.2 535.96 625.64 536.21 644.28 537.71 648.34 540.9 652.22 542.53 657.29 547.91 660.85 549.66 663.29 555.1 675.61 549.28 677.92 546.22 680.86 544.59 693.93 546.4 697.69 549.84 701.63 555.16 704.82 557.72 712.82 557.29 730.58 554.6 737.71 552.72 746.47 552.16 764.54 547.4 766.98 538.59 767.42 536.46 769.54 536.46 771.86 540.59 774.86 547.53 778.05 549.16 780.36 550.09 786.12 549.34 793.81 547.84 796.87 539.78 806.13 539.21 809.13 534.08 809.82 527.96 808.38 515.82 819.76 514.7 829.02 508.51 835.65 498.56 838.46 485.05 850.78 481.05 853.16 438.9 861.16 431.58 860.98 429.46 860.73 424.95 857.66 411.07 851.66 395.68 849.59 385.49 847.09 369.36 841.21 355.35 847.09 341.71 851.47 320.14 854.66 309.94 815.45 305.94 809.44 300.56 806.88 290.49 805.13 288.24 819.01 289.31 825.2 288.74 828.08 287.05 830.21 288.49 833.15 286.12 845.34 287.05 849.22 283.49 858.22 280.17 861.54 273.11 865.35 250.47 871.61 241.34 867.42 226.27 862.29 212.63 859.41 210.69 851.47 205.63 852.28 200.31 854.53 198.5 857.04 198.31 859.66 198.87 865.17 201.69 869.23 204.82 878.67 195.31 890.56 191.43 893.75 183.61 895.62 167.04 895.62 155.91 897.06 154.6 891.56 158.22 891.12 159.79 890.74 Z" fill-rule="evenodd" stroke="#000000" stroke-width="3" stroke-opacity="1" fill="none" fill-opacity="0"/>
<path d="M 157.22 891.12 156.1 890.93 156.41 890.81 157.22 891.12 Z M 536.84 608.07 535.77 612.38 536.84 616.2 535.96 625.64 536.21 644.28 537.71 648.34 540.9 652.22 542.53 657.29 547.91 660.85 549.66 663.29 555.1 675.61 546.84 679.86 544.28 691.5 546.4 697.69 549.84 701.63 555.16 704.82 557.72 712.82 557.29 730.58 554.6 737.71 552.72 746.47 552.16 764.54 547.4 766.98 538.59 767.42 536.46 769.54 536.46 771.86 540.59 774.86 547.53 778.05 549.16 780.36 550.09 786.12 549.34 793.81 547.84 796.87 539.78 806.13 539.21 809.13 534.08 809.82 527.96 808.38 521.33 814.07 515.82 819.76 514.7 829.02 508.51 835.65 498.56 838.46 485.05 850.78 481.05 853.16 438.9 861.16 429.46 860.73 424.95 857.66 411.07 851.66 395.68 849.59 385.49 847.09 369.36 841.21 355.35 847.09 341.71 851.47 320.14 854.66 309.94 815.45 305.94 809.44 300.56 806.88 290.49 805.13 288.24 819.01 289.31 825.2 288.74 828.08 287.05 830.21 288.49 833.15 286.12 845.34 287.05 849.22 283.49 858.22 280.17 861.54 273.11 865.35 250.47 871.61 241.34 867.42 226.27 862.29 212.63 859.41 210.69 851.47 205.63 852.28 200.31 854.53 198.5 857.04 198.31 859.66 198.87 865.17 201.69 869.23 204.82 878.67 195.31 890.56 191.43 893.75 183.61 895.62 167.04 895.62 155.91 897.06 154.6 891.56 158.04 891.18 159.79 890.74 159.6 886.24 162.41 882.74 159.1 881.11 161.79 879.8 158.85 876.05 159.22 871.92 155.47 868.92 157.41 863.73 156.16 862.73 157.1 860.85 155.53 859.04 157.22 855.85 157.04 852.78 155.1 851.97 155.28 850.66 152.91 851.03 153.66 848.09 152.34 846.65 152.78 842.53 151.53 841.15 153.03 837.96 151.91 832.02 150.72 831.15 151.34 828.96 150.09 825.77 156.28 824.45 156.03 820.26 155.6 819.01 153.91 819.33 150.53 817.2 150.97 816.14 148.22 812.38 143.28 813.32 141.34 812.45 141.34 810.19 138.52 804.38 140.9 801.38 139.71 798.87 141.53 796.25 141.46 792.87 140.52 790.12 138.96 791.56 137.65 791.43 135.83 779.3 132.83 770.98 134.21 764.79 135.58 765.54 137.15 764.79 136.96 756.66 138.65 749.66 136.84 744.09 137.27 742.4 146.53 742.53 149.28 732.96 148.15 724.77 146.59 721.58 149.16 720.33 150.91 716.7 150.53 714.13 146.53 716.14 144.21 715.89 142.78 713.07 135.83 707.38 135.96 699.44 144.65 695.56 147.65 695.5 148.84 694.12 150.34 695.31 154.16 694.81 154.03 692 158.1 688.68 158.72 684.8 157.6 681.86 163.41 676.61 166.17 676.05 166.17 671.48 165.1 669.92 166.54 666.35 171.98 667.1 183.86 666.35 188.18 667.36 193.43 662.85 194.25 657.6 193.12 656.35 194.06 654.47 197.69 653.1 221.26 653.28 221.89 650.53 224.14 648.78 223.39 647.03 224.33 645.28 223.08 635.4 224.14 632.08 222.76 631.65 223.76 630.89 223.14 627.83 222.08 627.64 223.83 626.58 222.89 624.14 223.14 621.01 221.58 618.7 223.14 616.01 222.39 614.45 217.39 613.76 218.51 608.76 213.95 605.88 213.26 602.25 219.32 595.25 228.58 598.37 250.03 586.05 249.72 571.23 307.38 593.12 307.88 590.93 313.51 588.37 315.76 588.93 319.14 586.93 322.26 588.62 326.77 586.87 331.14 590.06 335.46 589.18 341.96 591.43 345.65 588.56 349.91 588.87 357.54 592.43 371.11 590.12 398.5 589.43 420.76 583.99 427.02 583.36 432.4 586.43 463.98 593.87 475.86 599.12 493.37 600.06 493.5 598.94 502.75 591.18 510.32 593.43 529.71 602.56 539.59 604.38 536.84 608.07 Z" fill-rule="evenodd" stroke="#0d1d0d" stroke-width="3" stroke-opacity="1" fill="#e0d91f" fill-opacity="1"/>
</g>
<g id="pasted2">
<circle cx="396.22" cy="613.65" r="15" fill="#cf1e1e" fill-opacity="1" stroke-opacity="1" stroke-width="2" stroke="#013c06"/>
</g>
</svg>