<?xml version="1.0"?>
<svg xmlns="http://www.w3.org/2000/svg" version="1.2" baseProfile="tiny" width="800" height="2057" viewBox="0 0 800 2057" stroke-linecap="round" stroke-linejoin="round">
<g id="pasted1">
<path d="M 315.05 1324.58 314.31 1324.46 314.52 1324.38 315.05 1324.58 Z M 264.42 944.45 265.32 940.24 274.44 938.69 280.45 936.11 282.38 933.78 284.75 927.93 286.18 926.3 288.84 924.86 298.24 925.68 301.51 924.58 302.17 923.76 301.55 919.71 299.8 917.99 296.65 916.85 296.24 913.74 298.77 909.86 299.92 908.71 310.79 904.58 318.32 896.77 319.06 889.62 320.57 885.36 322.53 882.83 327.97 881.81 331.81 882.3 334.06 880.25 340.03 870.03 342.49 869.21 346.58 870.48 350.09 869.7 351.81 867.94 355.24 858.82 360.27 853.55 365.39 856.62 369.27 856.98 373.73 853.67 376.26 853.26 379 854.82 379.62 860.42 381.17 864.84 384.11 865.04 390.94 868.47 396.01 869.78 404.19 870.11 414.13 873.75 426.35 872.48 429.63 871.5 448.19 868.92 455.14 864.3 458.7 859.76 459.03 856.98 462.09 853.79 465.9 853.06 468.92 851.01 469.7 849.42 470.07 847.13 469.25 844.59 465.12 836.87 463.73 831.26 463.85 819.08 462.79 803.42 464.14 798.39 466.06 795.28 466.06 793.32 471.5 789.43 476.12 787.92 480.82 788.41 485.52 787.92 497.71 782.15 502.62 781.17 515.09 782.32 519.18 783.95 534.06 786.73 536.35 785.91 539.46 782.48 541.75 781.5 544.53 778.96 549.81 778.92 552.1 782.64 554.71 784.12 561.67 781.54 564.12 779.25 570.62 776.06 578.43 773.32 586.94 771.73 589.27 773.16 597.12 774.79 608.89 772.01 616.09 772.34 619.2 766.41 620.67 764.94 622.96 764.94 623.45 758.23 625.95 750.79 627.79 748.79 637.68 742.57 641.12 749.77 652.89 761.22 656.86 768.09 657.72 771.11 663.2 776.8 667.21 779.45 671.62 784.93 684.01 797.41 694.07 803.01 697.55 805.79 705.56 821.33 713.37 829.87 721.39 845.98 720.53 849.62 724.17 858.05 726.42 875.67 723.88 885.61 724.74 886.59 723.19 893.58 727.52 932.39 726.01 944.57 726.99 948.5 727.89 958.64 727.11 1006.32 725.84 1019.36 729.48 1076.08 734.27 1083.48 734.68 1088.55 722.16 1091.95 711.61 1098 683.4 1105.2 680.82 1106.75 678.57 1109.08 673.54 1119.3 669.17 1123.56 666.47 1127.81 660.75 1133.62 654.86 1135.46 649.54 1136.31 634.41 1135.87 627.83 1137.42 626.15 1138.97 620.67 1139.1 617.6 1140.65 614.95 1140.65 607.22 1137.13 605.71 1137.71 599.65 1137.83 596.01 1135.58 595.89 1134.47 593.52 1135.05 592.37 1134.35 590.58 1134.76 586.53 1134.35 584.11 1133.78 582.32 1131.82 568.86 1131.65 562.4 1129.45 565.63 1136.44 563.26 1139.5 562.56 1142.33 563.26 1144.82 562.69 1151 562.85 1163.18 563.83 1165.84 565.92 1168.37 566.98 1171.69 570.5 1174.02 571.64 1175.61 575.2 1183.67 571.4 1185.18 569.39 1187.1 568.33 1195.65 569.52 1198.1 571.77 1200.68 575.24 1202.76 576.92 1208 576.63 1219.61 574.87 1224.27 573.65 1230 573.28 1241.82 570.17 1243.41 564.4 1243.7 563.01 1245.09 563.01 1246.6 565.71 1248.56 570.25 1250.65 571.32 1252.16 571.93 1255.92 571.44 1260.95 570.46 1262.96 565.18 1269.01 564.81 1270.97 561.46 1271.42 557.45 1270.48 549.52 1277.92 548.78 1283.97 544.74 1288.31 538.23 1290.15 529.4 1298.2 526.78 1299.76 499.22 1304.99 494.44 1304.87 493.05 1304.71 490.1 1302.7 481.03 1298.78 470.97 1297.43 464.3 1295.79 453.75 1291.95 444.59 1295.79 435.68 1298.65 421.57 1300.74 414.9 1275.1 412.29 1271.18 408.77 1269.5 402.19 1268.35 400.72 1277.43 401.41 1281.48 401.04 1283.36 399.94 1284.75 400.88 1286.67 399.33 1294.65 399.94 1297.18 397.61 1303.07 395.44 1305.24 390.82 1307.73 376.02 1311.82 370.05 1309.08 360.19 1305.73 351.28 1303.85 350.01 1298.65 346.7 1299.19 343.22 1300.66 342.04 1302.29 341.91 1304.01 342.28 1307.61 344.12 1310.27 346.17 1316.44 339.95 1324.21 337.42 1326.3 332.3 1327.52 321.47 1327.52 314.19 1328.46 313.33 1324.87 315.7 1324.58 316.72 1324.33 316.6 1321.39 318.44 1319.1 316.27 1318.04 318.03 1317.18 316.11 1314.73 316.36 1312.03 313.9 1310.06 315.17 1306.67 314.35 1306.02 314.97 1304.79 313.94 1303.6 315.05 1301.52 314.92 1299.51 313.66 1298.98 313.78 1298.12 312.23 1298.37 312.72 1296.45 311.86 1295.51 312.14 1292.81 311.33 1291.91 312.31 1289.82 311.57 1285.94 310.79 1285.36 311.2 1283.93 310.39 1281.85 314.43 1280.99 314.27 1278.25 313.98 1277.43 312.88 1277.64 310.67 1276.25 310.96 1275.55 309.16 1273.1 305.93 1273.71 304.66 1273.14 304.66 1271.67 302.82 1267.86 304.37 1265.9 303.6 1264.26 304.78 1262.55 304.74 1260.34 304.13 1258.54 303.11 1259.48 302.25 1259.4 301.06 1251.47 299.1 1246.03 300 1241.98 300.9 1242.47 301.92 1241.98 301.8 1236.66 302.9 1232.08 301.72 1228.44 302 1227.34 308.06 1227.42 309.85 1221.17 309.12 1215.81 308.1 1213.72 309.77 1212.9 310.92 1210.53 310.67 1208.86 308.06 1210.17 306.54 1210 305.6 1208.16 301.06 1204.44 301.14 1199.25 306.83 1196.71 308.79 1196.67 309.57 1195.77 310.55 1196.55 313.04 1196.22 312.96 1194.38 315.62 1192.21 316.03 1189.68 315.29 1187.76 319.1 1184.32 320.9 1183.95 320.9 1180.97 320.2 1179.95 321.14 1177.62 324.7 1178.11 332.47 1177.62 335.29 1178.27 338.72 1175.33 339.26 1171.89 338.52 1171.07 339.13 1169.85 341.5 1168.95 356.92 1169.07 357.33 1167.27 358.8 1166.12 358.31 1164.98 358.92 1163.84 358.11 1157.37 358.8 1155.21 357.9 1154.92 358.56 1154.43 358.15 1152.43 357.45 1152.3 358.6 1151.61 357.98 1150.01 358.15 1147.97 357.13 1146.46 358.15 1144.7 357.66 1143.68 355.41 1143.18 353.32 1143.8 353.12 1143.06 354.34 1141.3 352.01 1140.45 351.65 1141.1 350.26 1140.28 350.34 1139.18 351.2 1138.6 350.38 1138.4 350.01 1137.5 350.62 1136.93 349.97 1135.66 350.87 1134.31 349.81 1133.74 350.21 1132.23 349.48 1131.98 351.07 1130.14 349.56 1129.81 350.71 1129.04 349.4 1127.2 350.01 1126.75 345.68 1125.19 348.54 1123.52 348.37 1122.86 343.39 1122.7 344.16 1121.31 343.43 1120.57 344.53 1118.85 342.85 1119.06 341.34 1118.4 340.4 1116.03 337.58 1116.61 335.9 1115.66 334.43 1113.74 329.97 1112.27 327.4 1112.43 326.42 1111.62 326.99 1110.31 326.5 1109.16 327.36 1108.88 326.54 1108.51 326.33 1106.95 326.33 1106.26 327.11 1105.97 326.58 1104.13 327.19 1103.07 326.29 1100.86 326.5 1099.43 328.05 1098.98 328.05 1097.96 326.05 1095.83 326.25 1094.28 325.27 1092.85 325.23 1091.17 323.63 1089.82 324 1085.16 324.62 1084.01 323.76 1082.26 321.47 1080.62 317.46 1081.15 315.91 1078.62 317.34 1076.53 313.9 1074.77 310.06 1074.53 307.4 1073.55 305.97 1072.32 301.55 1072.89 299.92 1069.87 299.1 1069.58 298.81 1068.03 295.13 1068.07 293.66 1069.09 293.42 1066.27 291.09 1063.94 290.76 1061.44 288.92 1059.32 287.4 1059.28 286.34 1057.84 284.05 1057.93 281.68 1056.82 278.98 1054.7 278.45 1052.41 276.45 1051.1 274.28 1052.65 270.07 1053.06 267.61 1049.83 265.24 1049.01 264.79 1049.75 264.18 1049.38 264.96 1047.74 264.63 1046.44 263.48 1045.45 262.62 1041.45 260.99 1039.85 257.51 1040.02 256.98 1039.4 255.84 1040.22 256.2 1041.36 252.77 1038.95 216.7 981.34 217.15 979.41 212.9 975.73 222.14 975.94 223.94 974.55 223.12 972.71 222.06 974.59 221.94 972.79 219.08 972.67 214.82 968.58 216.09 966.04 215.27 963.38 215.23 960.19 216.01 959.74 217.07 960.69 218.95 960.73 220.1 958.89 220.96 958.68 222.02 958.93 220.96 959.83 222.55 961.05 224.64 959.58 229.58 959.91 233.31 961.26 232.98 964.41 233.92 965.27 237.39 963.22 238.99 963.55 239.77 962.93 240.3 961.5 239.56 959.83 238.58 959.3 236.13 960.89 235.6 960.28 235.8 958.64 236.7 957.41 241.07 956.23 243 952.63 247.45 952.71 247.66 956.19 249.38 956.64 251.54 960.28 252.28 959.7 252.36 957.86 253.06 957.17 256.61 957.78 260.62 956.92 264.42 951.2 262.46 948.5 263.07 945.76 264.96 945.15 264.42 944.45 Z" fill-rule="evenodd" fill="#ffcc00" stroke="#000000" stroke-width="1" stroke-opacity="1" fill-opacity="0"/>
<path d="M 346.58 870.48 342.49 869.21 340.03 870.03 334.06 880.25 331.81 882.3 327.97 881.81 322.53 882.83 320.57 885.36 319.06 889.62 318.32 896.77 310.79 904.58 299.92 908.71 298.77 909.86 296.24 913.74 296.65 916.85 299.8 917.99 301.55 919.71 302.17 923.76 301.51 924.58 298.24 925.68 288.84 924.86 286.18 926.3 284.75 927.93 282.38 933.78 280.45 936.11 274.44 938.69 265.32 940.24 264.42 944.45 263.52 943.55 262.79 940.65 265.77 937.75 267.33 937.66 267.7 934.6 268.76 934.27 271.78 935.5 272.81 934.72 273.13 932.96 271.38 930.79 272.6 927.48 274.4 925.93 274.81 926.46 275.59 924.86 274.65 923.15 273.5 922.74 273.42 920.33 272.56 920.12 271.74 917.75 270.52 916.81 270.6 915.54 269.37 915.09 269.54 910.39 267.98 908.83 268.51 908.43 268.19 907.69 270.15 905.52 269.54 904.05 270.35 901.68 268.14 898.78 268.35 897.75 267.37 895.95 261.97 892.72 251.99 872.16 252.24 867.41 250.07 865.86 249.09 863.2 249.25 861.32 246.15 860.71 246.47 852.73 249.05 852.65 249.74 845.82 247.74 845.66 255.55 834.7 258.58 834.9 258.04 834 258.29 831.55 259.15 829.75 257.55 827.05 258.33 824.84 256.82 821.33 256.86 819.49 256.25 819.2 256.61 817.69 254.9 816.26 255.8 815.44 256.57 815.72 256.94 814.54 259.39 813.27 259.8 813.64 260.7 812.29 262.67 811.43 263.57 812.13 264.63 812 264.71 812.58 265.57 812.33 266.26 809.67 269.17 808.16 270.27 806.24 270.07 804.68 271.05 802.07 271.87 801.66 273.34 798.39 273.3 796.18 274.52 795.52 274.65 794.58 275.46 794.42 280.33 787.96 275.67 785.18 272.07 781.5 271.5 779.13 270.6 778.27 267.61 771.15 270.84 763.71 280.94 752.1 279.64 751.85 280.58 750.01 288.8 750.26 290.39 745.51 290.1 742.57 287.94 740.03 285.93 733.9 290.14 730.3 291.58 709.41 289.9 707.93 287.85 707.44 287.04 702.58 286.14 701.96 284.3 702.7 283.52 701.96 280.09 701.31 279.1 699.76 277.96 700.21 277.3 699.84 277.51 698.98 275.51 699.27 274.36 698.77 273.83 698.12 274.03 696.81 272.36 695.46 270.15 696.32 269.17 695.99 267.9 696.93 267.61 696.12 266.63 696.28 266.75 695.75 265.9 695.34 265.32 696.53 264.59 696.4 263.85 694.28 264.46 694.03 262.62 692.97 263.2 691.82 262.34 690.47 263.4 690.06 263.65 688.88 265.98 687.98 266.67 684.09 266.22 683.52 265.45 683.85 265.69 683.36 264.63 682.21 265.81 681.48 265.61 680.9 263.36 679.92 263.24 679.06 261.77 678.53 261.97 678.08 261.23 678.04 259.88 676.2 256.9 676.86 256.41 675.92 255.84 676.45 253.87 674.73 251.13 675.14 250.32 674.2 249.42 674.81 248.6 673.54 248.93 673.09 247.41 673.38 247.41 672.24 246.68 671.62 244.59 671.46 242.26 670.19 235.72 671.62 234.86 670.85 230.65 670.76 230.61 670.07 229.83 669.78 229.09 671.13 228.44 670.8 228.11 671.99 226.93 671.99 226.6 673.22 224.19 672.69 223.57 673.59 223.04 673.05 222.47 673.83 222.02 673.42 219.16 674.24 217.73 673.34 216.99 674.2 213.88 673.59 206.93 671.13 205.09 673.26 203.17 673.67 203.21 674.73 200.43 675.59 200.88 677.27 202.23 678.33 202.15 679.88 200.59 684.67 199.94 684.95 199.41 687.9 197.93 690.47 196.79 690.8 196.38 690.23 195.44 691.95 194.91 691.29 193.6 692.56 191.64 691.62 190.78 692.8 187.75 692.76 184.4 694.81 184.52 695.99 182.89 695.83 182.27 696.93 181.66 696.57 179.41 697.22 178.51 698.12 178.06 697.59 177.41 699.22 177.08 698.37 176.3 699.51 173.56 699.8 173.11 699.18 172.79 700.45 171.85 700.53 171.23 699.72 169.84 700.04 170.25 698.77 168.49 699.22 168.7 699.8 166.69 700.04 165.75 699.14 166.28 698.28 165.79 697.71 160.85 696.03 160.8 693.87 153.4 685.89 152.59 679.64 153.4 676.16 155.86 675.67 163.87 679.72 170.29 679.11 172.7 675.43 178.02 675.1 178.88 673.63 185.79 670.11 186.81 669.09 186.77 667.21 184.6 664.26 180.39 661.93 176.59 660.7 164.73 663.12 160.97 662.09 159.25 660.99 156.84 657.02 155.82 650.77 157.61 645.17 157.45 641.2 157.98 640.26 159.41 639.6 163.5 640.26 168.53 643.28 170.74 642.63 172.46 640.91 178.27 639.28 181.9 639.81 186.32 639.03 190.12 639.77 192.99 638.46 196.63 638.42 199.41 638.99 201.12 640.83 203.74 641.08 210.49 639.24 214.45 636.17 216.38 633.72 215.27 630.89 212.29 626.56 214.9 618.01 216.09 611.55 213.96 612.13 213.47 610.65 214.05 609.3 213.23 609.06 213.43 607.87 212.41 607.63 212.04 608.4 210.81 608.57 211.22 607.14 210.2 607.1 209.96 605.34 209.18 605.09 210.45 602.88 209.51 601.74 209.26 602.23 208.2 601.86 208.4 599.9 206.48 598.84 206.03 599.24 204.19 598.43 203.25 598.88 203.58 591.88 201.29 583.09 198.06 580.31 192.21 579.78 190.21 577.69 192.78 572.5 194.79 564.98 194.74 562.48 192.95 558.93 193.6 558.31 195.64 558.35 197.03 556.88 196.54 554.3 195.03 551.56 195.44 548.62 199.08 545.55 199.04 541.06 202.51 537.62 204.15 532.3 206.32 528.3 204.6 519.75 204.8 518.44 203.54 514.44 204.23 511.7 203.58 505.52 204.76 499.1 207.34 494.85 214.62 493.09 217.93 491.66 217.77 486.63 213.19 483.52 210.37 480.13 207.71 474.77 206.15 469.54 205.95 467.29 207.75 464.38 208.69 461.24 208.65 459.31 207.22 455.92 207.18 454.32 208.32 452.36 209.51 452.16 213.51 455.31 219.69 455.39 221.77 456.04 224.27 458 226.76 457.6 226.68 458.37 229.75 462.67 232.61 468.72 232.73 471.91 230.85 476.08 232.04 481.07 234.16 483.32 242.71 484.18 245.45 485.69 246.39 487.98 250.19 489.29 252.57 487.61 258.62 485.36 263.2 488.14 264.1 490.23 266.96 490.35 270.03 486.67 272.4 486.18 275.38 489.49 274.52 492.48 272.15 496.03 270.52 497.1 270.52 500.45 271.95 503.89 273.26 504.46 274.2 506.62 298.94 514.97 300.29 513 305.48 511.65 315.95 513.99 319.18 509.81 322.12 509.45 323.92 510.71 327.4 516.28 329.36 516.64 332.22 514.27 334.88 514.11 336.64 515.01 337.78 516.93 339.13 512.35 337.01 504.17 329.24 496.61 328.17 494.23 328.3 493.09 332.51 489.16 333.41 487.28 332.47 484.01 335.74 482.83 337.01 473.38 327.23 471.01 323.02 470.84 325.52 467.61 332.71 462.79 335.08 459.89 337.09 455.06 337.29 450.64 340.81 444.59 340.69 432.77 334.76 420.88 336.19 408.57 339.46 407.63 341.34 402.68 345.31 398.02 348.05 397.65 362.6 409.1 363.63 407.01 361.7 403.78 361.99 400.88 359.66 397.49 361.13 395.73 368.33 391.76 373.89 394.87 376.39 394.13 377.82 392.74 379.33 392.95 384.6 396.01 388.57 403.5 390.62 404.23 392.82 403.05 396.22 397.36 403.09 373.36 410.37 367.76 414.21 366.49 418.5 362.2 422.8 354.47 428.6 347.76 449.58 363.3 467.49 378.35 468.8 376.39 617.69 461.4 618.5 465.41 618.83 476.94 617.6 513.04 618.63 538.64 618.79 568.25 617.36 590.17 620.02 604.72 618.71 609.51 618.71 625.21 608.85 652.08 610.98 655.84 615.72 667.62 615.4 674.81 616.3 676.12 618.22 676.69 628.2 671.95 630.24 678.98 631.67 691.29 632.49 693.58 632.33 702.58 633.14 709.45 632.33 713.7 633.47 719.26 633.63 730.1 635.6 738.28 637.68 742.57 627.79 748.79 625.95 750.79 623.45 758.23 622.96 764.94 620.67 764.94 619.2 766.41 616.09 772.34 608.89 772.01 597.12 774.79 589.27 773.16 586.94 771.73 578.43 773.32 570.62 776.06 564.12 779.25 561.67 781.54 554.71 784.12 552.1 782.64 549.81 778.92 544.53 778.96 541.75 781.5 539.46 782.48 536.35 785.91 534.06 786.73 519.18 783.95 515.09 782.32 502.62 781.17 497.71 782.15 485.52 787.92 480.82 788.41 476.12 787.92 468.76 790.99 466.06 793.32 466.06 795.28 464.14 798.39 462.79 803.42 462.83 809.43 463.85 819.08 463.73 831.26 465.12 836.87 469.25 844.59 470.07 847.13 469.7 849.42 468.92 851.01 465.9 853.06 462.09 853.79 459.03 856.98 458.7 859.76 455.14 864.3 448.19 868.92 429.63 871.5 426.35 872.48 414.13 873.75 404.19 870.11 396.01 869.78 390.94 868.47 384.11 865.04 381.17 864.84 379.62 860.42 379 854.82 376.26 853.26 373.73 853.67 369.27 856.98 365.39 856.62 360.27 853.55 355.24 858.82 351.81 867.94 350.09 869.7 348.13 869.91 346.58 870.48 Z M 211.71 624.52 211.71 624.43 211.59 623.62 211.8 624.72 211.71 624.52 Z M 211.18 622.27 211.31 622.47 211.02 622.1 211.18 622.27 Z" fill-rule="evenodd" fill="#006A4E" stroke="#000000" stroke-width="1" stroke-opacity="1" fill-opacity="0"/>
<path d="M 549.48 2056.42 549.6 2056.34 549.6 2056.42 549.48 2056.42 Z M 353.61 1890.68 354.92 1889.87 359.05 1889.5 367.55 1886.39 372.26 1886.88 378.18 1883.04 385.26 1876.86 393.85 1876 395.28 1875.47 396.63 1873.84 399.28 1868.77 400.55 1861.81 403.95 1851.47 406.15 1847.87 409.47 1844.6 412 1837.07 414.09 1833.97 417.4 1817.94 419.77 1815.16 421.65 1815.52 427.95 1814.54 428.32 1797.98 427.66 1790.95 426.68 1787.15 431.75 1782.73 437.56 1779.29 443.2 1774.84 452.93 1770.09 454.12 1767.89 453.06 1763.02 452.53 1752.06 459.15 1751.53 467.7 1749.48 476.2 1748.42 482.5 1745.8 483.85 1746.25 493.34 1751.12 506.62 1763.47 507.69 1767.31 511.61 1771.03 518.61 1771.44 523.19 1772.92 526.78 1777.29 530.14 1777.74 533.74 1779.91 535.09 1781.05 535.37 1782.4 538.07 1783.83 538.23 1784.82 543.02 1787.68 545.96 1787.92 553.65 1795.28 555.53 1796.71 556.96 1796.96 558.6 1796.51 561.17 1793.97 562.89 1790.29 565.39 1787.39 566.82 1786.78 568.62 1789.27 575.2 1791.77 581.33 1792.87 585.34 1787.51 588.94 1784.28 602.47 1775 612.33 1767.23 634.49 1759.83 636.62 1757.01 640.95 1757.25 647.95 1758.89 655.55 1762 661.32 1762.61 667.45 1761.79 673.01 1759.91 681.23 1755.41 686.34 1750.88 696.4 1733.25 705.03 1730.35 704.62 1724.95 706.99 1727.49 711.21 1729.86 716.28 1731.53 716.44 1735.17 715.74 1737.83 716.85 1740.77 712.64 1744.86 711.94 1747.24 714.93 1753.29 713.99 1761.83 715.66 1763.8 719.59 1763.1 720.28 1764.49 713.7 1769.73 712.88 1772.26 713.58 1774.63 717.79 1774.88 718.77 1775.61 719.63 1778.4 718.24 1781.63 717.54 1786.98 723.19 1789.35 724.74 1791.32 722.57 1793.08 721.55 1795 722.7 1797.12 722.12 1798.8 714.19 1805.14 711.25 1805.14 710.47 1808.74 710.96 1813.23 709.94 1814.58 707.89 1815.16 706.46 1818.51 704.54 1818.31 703.44 1820.31 705.03 1821.62 710.14 1822.23 711.53 1825.83 715.7 1829.55 718.85 1839.65 715.38 1841.57 715.38 1844.27 718.32 1846.48 719.47 1849.87 719.22 1852.2 723.06 1856.13 725.19 1855.35 727.69 1855.56 729.12 1856.46 730.92 1863.57 731.98 1864.51 737.13 1865.74 739.79 1863.12 742.86 1862.59 744.49 1863.57 745.1 1865 744.49 1867.7 741.3 1871.63 742.12 1873.88 743.1 1874.65 748.5 1872.77 750.01 1875.64 753.53 1875.72 754.43 1877.88 753.28 1880.05 755.82 1882.71 756.02 1892.24 753.77 1892.24 752.67 1893.59 753.24 1897.39 757.45 1898.53 760.15 1897.43 763.02 1899.43 764.28 1896.9 765.63 1896.82 766.9 1899.15 767.43 1902.62 769.44 1903.28 770.42 1905.32 768.9 1907.2 769.89 1908.02 771.68 1907.86 775.81 1912.23 776.71 1914.03 777.29 1915.91 776.75 1917.79 777.08 1919.96 778.64 1924.71 781.54 1927.32 784.77 1927.85 786.28 1926.42 788.08 1927.49 788 1929.74 786.73 1931.25 785.96 1931.25 785.83 1933.21 783.46 1933.74 783.34 1938.77 785.42 1940.82 783.99 1941.84 784.65 1946.5 788.53 1949.08 791.6 1958.93 790.94 1961.39 788.86 1963.35 790.62 1966.29 792.83 1967.56 795.28 1973.82 795.07 1976.56 791.72 1978.19 794.13 1981.95 798.18 1983.02 799 1984.9 799 1986.49 796.96 1987.39 794.79 1987.96 787.18 1987.96 781.74 1991.15 774.34 1991.48 771.15 1993.98 764.24 1993.53 761.05 1995.94 758.44 1996.14 756.31 1995.45 752.55 1997.41 748.66 1996.14 746.41 1996.72 743.8 1999.66 741.75 2000.48 737.34 1999.78 730.38 2004.12 726.17 2005.34 726.46 2005.88 721.43 2006.49 718.48 2007.31 716.81 2008.57 714.76 2008.57 708.63 2010.41 706.46 2010.17 704.21 2011.31 695.34 2012.46 693.99 2013.24 689.45 2013.81 685.57 2015.53 679.8 2016.3 680.46 2020.76 680.13 2021.21 678.98 2016.55 673.67 2017 666.06 2018.59 655.59 2021.99 641.98 2024.93 636.17 2027.22 629.46 2028.24 617.07 2032.54 602.35 2036.54 594.95 2039.94 588.57 2041.66 587.67 2042.56 587.43 2045.74 586.77 2042.76 585.95 2043 585.75 2044.15 584.61 2045.05 585.06 2046.4 580.72 2046.4 580.76 2047.22 588.12 2047.09 586.32 2047.22 586.28 2047.99 576.18 2048.48 570.05 2049.55 550.38 2055.6 550.01 2039.73 550.67 2033.48 503.84 2033.07 500.78 2031.68 499.63 2029.59 500.08 2027.47 501.19 2029.35 501.92 2027.22 498.08 2022.31 499.76 2022.52 496.2 2015.36 495.91 2012.46 491.21 2006.61 488.55 2006.57 483.73 2004.57 483.52 2003.42 478.61 1997.04 476.08 1991.73 475.22 1984.57 472.03 1981.87 470.97 1974.84 472.07 1970.5 471.46 1966.58 470.6 1965.15 424.88 1964.82 423.21 1962.08 422.55 1958.77 421.28 1956.64 418.83 1954.8 417.44 1952.02 413.47 1949.4 412.33 1946.95 403.29 1939.92 397.69 1936.77 381.91 1932.97 379.66 1924.34 366.24 1918.74 364.49 1914.56 365.14 1904.14 359.29 1903.77 355 1896.74 353.61 1890.68 Z" fill-rule="evenodd" fill="#ffcc00" stroke="#000000" stroke-width="1" stroke-opacity="1" fill-opacity="0"/>
<path d="M 372.26 1886.88 367.55 1886.39 359.05 1889.5 354.92 1889.87 353.61 1890.68 353.24 1886.31 353.89 1883.28 366.12 1871.75 366 1867.7 363.46 1861.16 355.82 1860.79 350.91 1862.8 345.27 1861.41 342.73 1860.06 341.5 1857.97 342.32 1857.19 335 1851.06 332.59 1854.54 330.05 1854.04 328.3 1853.15 326.62 1851.1 327.03 1849.96 326.54 1848.69 325.31 1848.32 325.07 1846.56 324.33 1846.23 324.33 1845.29 323.39 1844.97 322.9 1843.54 320.12 1844.44 320.57 1842.1 320.16 1841.61 321.59 1840.96 319.63 1840.06 319.75 1838.91 320.69 1838.47 320.49 1837.28 321.75 1836.3 321.06 1835.56 323.51 1829.26 322.69 1828.36 322.57 1825.91 323.1 1822.8 324.21 1822.11 322.82 1820.1 323.27 1819.45 323.1 1816.87 324.62 1815.03 325.03 1812.99 324.29 1811.93 325.35 1810.54 322.9 1807.96 323.88 1802.97 325.35 1801.09 325.84 1801.29 325.84 1800.39 322.45 1797.78 319.38 1796.96 318.56 1795.77 317.62 1795.53 315.54 1796.39 312.92 1793.48 312.19 1794.59 311 1794.26 309.61 1795.65 308.95 1795.37 308.67 1796.47 305.6 1792.67 304.05 1792.79 301.88 1791.07 297.75 1790.62 293.66 1785.35 295.99 1785.35 291.49 1781.87 292.35 1781.34 291.41 1779.66 292.97 1777.78 291.78 1776.15 293.25 1776.11 291.9 1773.82 295.38 1775.61 295.42 1774.59 296.16 1774.27 295.5 1773.16 296.97 1771.89 294.19 1770.79 293.13 1771.24 292.39 1770.63 293.17 1769.56 291.33 1768.62 291.37 1767.27 292.15 1767.07 292.19 1766.29 290.92 1764.78 289.29 1765.11 287.57 1762.86 286.91 1763.1 283.68 1760.81 282.46 1762.45 283.32 1763.35 280.98 1763.96 280.45 1764.82 277.39 1763.67 278.49 1760.89 277.35 1761.18 277.35 1751.69 282.01 1748.42 278.29 1744.09 278.45 1743.23 283.64 1741.8 287.73 1739.34 289.9 1731.9 290.02 1727.73 291.37 1725.48 288.67 1722.29 286.22 1721.27 284.79 1721.88 283.85 1718.61 282.74 1719.51 281.88 1718.57 274.93 1716.98 273.71 1714.48 275.1 1711.46 273.95 1709.17 274.85 1707.69 273.46 1706.43 273.54 1704.34 275.34 1704.05 278.7 1702.09 280.13 1698.7 284.17 1695.75 286.96 1694.85 287.4 1695.34 292.84 1693.18 296.11 1694.36 299.63 1692.2 303.27 1692.11 303.68 1690.64 302.82 1689.42 304.95 1686.88 306.34 1683.61 305.56 1680.83 306.22 1678.74 304.05 1668.56 309.9 1658.58 311.24 1654.17 310.02 1653.23 311 1652 310.06 1649.79 306.17 1648.65 305.68 1647.05 304.37 1646.36 302.74 1646.44 301.92 1647.38 302 1646.6 302.94 1644.48 303.97 1638.46 306.83 1636.79 307.32 1635.44 307.52 1628.69 308.1 1628.28 310.67 1628.94 312.14 1627.01 312.68 1624.56 311.61 1621 312.27 1618.47 313.86 1617.69 315.42 1618.35 318.03 1612.78 319.01 1603.3 321.26 1601.21 321.06 1596.1 321.79 1591.28 323.23 1588.04 322.9 1578.72 324.17 1574.26 325.76 1574.02 328.75 1566.58 329.32 1563.63 327.15 1557.46 325.39 1548.26 322.9 1539.75 324.94 1538.12 323.72 1535.46 323.51 1530.39 322.16 1528.79 319.18 1528.02 318.03 1528.3 316.6 1527.36 315.58 1524.95 313.25 1524.09 311.45 1525.24 309.45 1525.36 307.73 1527.2 305.72 1526.34 304.66 1529.45 294.23 1531.7 291.53 1529.86 289.57 1530.1 286.06 1527.4 284.75 1524.7 282.87 1523.4 281.76 1520.21 280.17 1520.53 280 1519.1 279.02 1518.77 279.88 1517.06 279.64 1515.34 278.33 1513.58 278.61 1512.64 277.47 1511.78 278.33 1510.23 276.85 1510.19 276.94 1509.45 277.55 1509.82 278.2 1509.16 277.3 1508.31 278.04 1507.82 277.02 1507.08 277.47 1506.14 275.1 1505.73 272.97 1507.16 273.5 1505.28 272.07 1504.67 273.17 1503.69 274.56 1503.52 273.13 1502.95 273.91 1501.56 272.89 1501.6 272.4 1500.99 273.01 1499.35 274.48 1498.98 276.57 1496.37 275.51 1496.65 274.97 1495.63 276.41 1494.28 274.93 1493.83 276 1492.32 273.79 1491.25 274.2 1487.53 273.26 1487.04 272.6 1485.04 273.13 1484.55 272.11 1483.53 273.09 1480.42 276.2 1454.21 275.51 1452.08 272.6 1451.83 271.87 1450.89 276.98 1448.85 278.98 1447.09 279.31 1445.86 282.17 1444.43 286.22 1444.84 288.26 1442.72 299.51 1437.97 299.88 1436.09 299.02 1435.03 298.2 1424.48 299.71 1418.75 301.43 1405.63 304.82 1403.21 308.83 1402.4 313.25 1405.55 316.27 1405.18 317.54 1404.32 314.84 1401.09 311.94 1390.99 312.14 1388.49 309.9 1385.26 310.59 1383.71 313.37 1383.34 313.04 1380.56 316.48 1380.23 317.91 1378.8 317.38 1372.06 316.23 1370.62 317.3 1369.27 317.3 1368.21 314.88 1368.37 312.23 1367.52 313.98 1366.17 312.51 1364.69 312.35 1363.22 313.37 1356.64 313.25 1353.04 314.15 1351.32 313.33 1350.63 313.78 1348.87 315.05 1348.67 316.27 1341.59 316.44 1338.07 314.76 1336.77 314.23 1334.07 315.01 1331.65 314.19 1328.46 321.47 1327.52 332.3 1327.52 337.42 1326.3 339.95 1324.21 346.17 1316.44 344.12 1310.27 342.28 1307.61 341.91 1304.01 342.04 1302.29 343.22 1300.66 346.7 1299.19 350.01 1298.65 351.28 1303.85 360.19 1305.73 370.05 1309.08 376.02 1311.82 390.82 1307.73 395.44 1305.24 397.61 1303.07 399.94 1297.18 399.33 1294.65 400.88 1286.67 399.94 1284.75 401.04 1283.36 401.41 1281.48 400.72 1277.43 402.19 1268.35 408.77 1269.5 412.29 1271.18 414.9 1275.1 421.57 1300.74 435.68 1298.65 444.59 1295.79 453.75 1291.95 464.3 1295.79 470.97 1297.43 481.03 1298.78 490.1 1302.7 493.05 1304.71 494.44 1304.87 499.22 1304.99 526.78 1299.76 529.4 1298.2 538.23 1290.15 544.74 1288.31 548.78 1283.97 549.52 1277.92 557.45 1270.48 561.46 1271.42 564.81 1270.97 565.18 1269.01 570.46 1262.96 571.44 1260.95 571.93 1255.92 571.32 1252.16 570.25 1250.65 565.71 1248.56 563.01 1246.6 563.01 1245.09 564.4 1243.7 570.17 1243.41 573.28 1241.82 573.65 1230 574.87 1224.27 576.63 1219.61 576.92 1208 575.24 1202.76 571.77 1200.68 569.52 1198.1 568.33 1195.65 569.39 1187.1 571.4 1185.18 575.2 1183.67 571.64 1175.61 570.5 1174.02 566.98 1171.69 565.92 1168.37 563.83 1165.84 562.85 1163.18 562.69 1151 563.26 1144.82 562.56 1142.33 563.26 1139.5 565.63 1136.44 562.4 1129.45 568.86 1131.65 582.32 1131.82 584.11 1133.78 586.53 1134.35 590.58 1134.76 592.37 1134.35 593.52 1135.05 595.89 1134.47 596.01 1135.58 599.65 1137.83 605.71 1137.71 607.22 1137.13 614.95 1140.65 617.6 1140.65 620.67 1139.1 626.15 1138.97 627.83 1137.42 634.41 1135.87 649.54 1136.31 654.86 1135.46 660.75 1133.62 666.47 1127.81 669.17 1123.56 673.54 1119.3 678.57 1109.08 680.82 1106.75 683.4 1105.2 711.61 1098 722.16 1091.95 734.8 1088.59 733.12 1092.07 730.38 1107.32 732.67 1110.76 733 1113.58 732.02 1115.21 729.4 1116.36 727.73 1118.98 725.11 1128.83 724.5 1140.4 726.58 1143.63 729.24 1145.27 731.04 1161.34 728.87 1287.65 728.05 1316.48 727.52 1318 728.05 1326.34 727.32 1330.71 726.25 1355.09 728.58 1361.75 728.83 1367.39 726.79 1416.42 727.03 1422.68 729.24 1430.82 734.92 1442.27 734.39 1468.93 738.4 1479.93 742.28 1481.24 742.94 1483.32 745.02 1485.94 745.8 1489.62 745.02 1490.93 736.35 1490.93 733.86 1491.74 732.14 1494.48 728.75 1522.74 729.53 1608.9 728.91 1608.86 729.53 1608.94 729.48 1641.78 731.16 1695.55 717.18 1694.89 710.47 1695.55 709 1695.22 709 1694.08 696.81 1693.91 697.63 1699.35 697.43 1704.91 700.94 1709.21 704.21 1714.97 705.03 1730.35 696.4 1733.25 686.34 1750.88 681.23 1755.41 673.01 1759.91 667.45 1761.79 661.32 1762.61 655.55 1762 647.95 1758.89 640.95 1757.25 636.62 1757.01 634.49 1759.83 612.33 1767.23 602.47 1775 588.94 1784.28 585.34 1787.51 581.33 1792.87 575.2 1791.77 568.62 1789.27 566.82 1786.78 565.39 1787.39 562.89 1790.29 561.17 1793.97 558.6 1796.51 555.53 1796.71 545.96 1787.92 543.02 1787.68 538.23 1784.82 538.07 1783.83 535.37 1782.4 535.09 1781.05 530.14 1777.74 526.78 1777.29 523.19 1772.92 518.61 1771.44 511.61 1771.03 507.69 1767.31 506.62 1763.47 493.34 1751.12 482.5 1745.8 476.2 1748.42 467.7 1749.48 459.15 1751.53 452.53 1752.06 453.06 1763.02 454.12 1767.89 452.93 1770.09 443.2 1774.84 437.56 1779.29 431.75 1782.73 426.68 1787.15 427.66 1790.95 428.32 1797.98 427.95 1814.54 421.65 1815.52 419.77 1815.16 417.4 1817.94 414.09 1833.97 412 1837.07 409.47 1844.6 406.15 1847.87 403.95 1851.47 401.53 1858.26 400.27 1865.45 398.59 1870.65 395.28 1875.47 390.66 1876.7 385.26 1876.86 383.54 1878.62 372.26 1886.88 Z" fill="#006A4E" stroke="#000000" stroke-width="1" stroke-opacity="1" fill-opacity="0"/>
<path d="M 300.29 513 298.94 514.97 274.2 506.62 273.26 504.46 271.95 503.89 270.52 500.45 270.52 497.1 272.15 496.03 274.52 492.48 275.38 489.49 272.4 486.18 270.03 486.67 266.96 490.35 264.1 490.23 263.2 488.14 258.62 485.36 252.57 487.61 250.19 489.29 246.39 487.98 245.45 485.69 242.71 484.18 234.16 483.32 232.04 481.07 230.85 476.08 232.73 471.91 232.61 468.72 229.75 462.67 226.68 458.37 226.76 457.6 228.36 456.74 228.23 454.98 229.18 452.4 228.68 447.78 230.52 443 230.32 441.61 221.49 433.27 215.35 431.79 208.93 431.47 205.05 428.6 203.99 425.66 203.82 421 205.66 417.48 206.32 413.51 208.36 409.96 207.95 406.69 204.15 401 203.09 397.65 204.19 395.48 204.35 391.8 203.41 388.16 205.21 384.44 205.13 378.88 207.18 376.71 207.58 375.4 206.93 370.13 207.5 360.85 208.69 357.94 212.16 357.41 215.93 354.34 215.93 353.24 215.03 352.38 212.12 351.73 210.86 349.93 211.88 349.48 212.33 350.54 212.86 349.52 212.16 348.95 212.33 348.42 213.55 348.33 214.45 349.07 213.92 347.47 214.7 345.96 217.11 344.86 216.34 344.49 216.42 343.84 218.58 342 219.89 342.61 222.18 341.83 222.59 340.48 221.81 337.87 218.22 337.25 215.6 338.23 213.68 337.87 209.75 339.34 206.56 339.21 204.23 337.99 202.19 340.56 197.16 339.99 195.81 338.97 195.4 340.16 194.66 340.11 194.34 339.01 192.78 340.89 191.27 339.62 190.16 340.16 189.14 338.97 191.72 338.19 192 335.58 195.85 333.74 197.77 333.9 198.02 333.45 196.26 328.79 194.66 328.71 194.05 327.52 192.82 327.32 191.06 329.77 188.82 328.21 189.27 323.84 188.32 322.04 188.45 319.14 187.47 316.93 185.95 316.03 185.67 314.6 183.7 315.25 183.05 313.9 178.51 312.39 179.7 310.75 178.8 310.26 180.76 309.32 182.6 306.54 182.64 301.64 181.82 301.1 181.74 298.9 180.47 299.14 180.15 298.4 178.47 299.06 177.57 297.63 177.94 296.89 176.83 294.15 175.89 293.82 174.79 294.81 173.93 294.03 173.44 295.05 171.48 294.27 170.45 296.44 168.9 296.4 169.02 297.71 169.92 297.87 169.64 298.65 167.96 299.1 167.72 298.45 166.04 299.59 165.51 298.81 162.44 299.02 161.83 297.34 160.72 297.59 159.46 296.32 158.64 296.81 156.96 296.32 156.67 297.75 155.49 297.3 152.5 293.82 150.79 293.29 148.86 293.62 150.09 292.64 148.7 291.94 147.8 293.42 145.88 293.95 145.84 295.17 146.49 295.91 143.79 295.3 145.51 300.57 144.28 301.06 144.24 299.88 142.4 299.96 138.68 301.76 137.37 298.98 137.74 297.22 136.92 295.26 135.62 295.79 134.39 293.38 133 292.48 131.61 292.97 130.54 291.21 129.24 290.8 129.77 289.16 128.05 285.89 129.03 285.24 129.24 284.3 129.6 284.5 129.48 283.81 130.42 283.64 130.26 281.88 129.36 281.15 128.79 281.8 127.23 280.94 126.58 279.43 126.01 279.88 126.05 278.12 123.8 277.3 123.06 276.08 123.06 275.3 124.21 275.1 124.98 272.68 124.08 271.13 123.02 271.01 123.31 270.23 122.57 269.37 123.06 268.19 121.51 266.96 122 265.61 121.3 263.97 121.63 263.03 120.04 261.32 120.4 260.13 119.46 257.72 120.16 256.41 118.89 255.8 119.46 255.22 118.85 253.63 119.26 253.26 118.2 251.01 112.18 249.62 108.01 245 84.58 236.7 84.46 232.32 82.87 227.74 77.43 223.37 77.39 222.26 76.57 221.77 76.77 220.34 59.15 215.44 58.62 214.86 57.31 214.94 57.19 214.41 55.06 214.5 53.42 212.25 53.46 211.39 38.17 208.4 35.23 207.22 31.1 195.97 31.26 192.9 30.61 190.82 27.82 183.95 22.84 176.38 22.92 175.24 24.19 173.56 28.6 172.83 30.03 171.97 29.3 167.63 30.69 162.93 29.87 161.38 29.38 156.84 31.22 153.93 30.03 151.48 32.12 150.05 33.47 150.38 36.66 144.82 39.6 142.77 41.28 142.32 41.89 139.62 44.22 137.17 47.04 136.19 47.82 133.04 50.81 131.16 50.11 129.48 50.6 126.25 48.19 121.83 47.66 116.36 48.11 114.35 49.62 112.27 49.13 110.34 49.87 110.26 49.21 107.52 49.54 105.93 52.56 102.53 52.36 101.96 53.5 100.49 53.46 98.53 54.53 97.46 54.65 96.07 53.79 95.79 56.78 92.35 56.2 91.86 56.9 91 56.69 89.9 54.9 88.51 55.75 86.95 54.81 82.78 55.06 80.37 56.86 79.63 56.74 76.61 57.63 76.32 57.96 74.11 57.23 73.54 57.51 72.31 70.03 68.68 71.25 66.14 72.64 65.16 72.27 64.26 73.75 60.46 71.62 56 69.82 31.71 61.52 23.61 60.54 20.96 60.74 18.58 59.6 17.03 57.68 16.21 58.21 15.11 57.88 13.35 53.87 12.16 53.79 11.35 52.52 10.69 51.83 10.65 50.93 11.8 48.39 11.84 44.02 14.66 43.36 14.41 42.26 15.93 41.11 16.29 41.03 17.56 39.64 18.5 37.64 22.22 33.67 21.98 32.28 22.84 30.56 22.1 26.8 23.04 24.55 21.85 21.08 22.3 18.62 21.12 17.32 18.91 12.94 16.99 11.18 16.87 8.85 14.54 4.43 13.8 1.65 14.41 1.16 13.84 1.7 12.74 1 8.85 1.9 6.97 5.01 4.48 4.68 1.37 5.66 1.65 6.03 1 12.74 2.23 21.65 4.56 37.52 6.11 57.23 10.12 74.4 11.92 101.1 19.44 119.63 22.88 138.11 28.15 168.9 34.2 179.08 36.82 206.81 39.15 229.18 44.06 241.81 47.9 265.94 52.24 265.45 55.67 260.83 62.79 262.3 63.69 267.25 63.69 268.35 66.51 268.1 76.81 264.67 83.36 279.76 74.69 285.07 70.84 295.22 66.14 297.95 66.02 301.55 67.24 309.85 63.69 321.22 57.59 334.23 58.45 352.05 58.08 363.1 58.98 406.69 58.45 409.26 59.35 414.86 59.35 427.01 58.21 428.36 59.11 432.94 58.86 427.99 76.2 427.74 80 423.9 90.06 424.27 93.01 428.24 103.68 421.77 114.07 417.15 136.6 414.82 141.26 402.07 157.7 397.4 168.9 396.63 172.21 395.07 175.69 393.15 178.22 392.21 183.62 389.67 228.68 387.59 237.8 383.62 247.33 381.86 253.91 380.27 256.74 379.82 268.59 376.67 297.87 377.12 303.43 376.51 308.87 396.63 322.82 411.43 335.13 428.6 347.76 422.8 354.47 418.5 362.2 414.21 366.49 410.37 367.76 403.09 373.36 396.22 397.36 392.82 403.05 390.62 404.23 388.57 403.5 384.6 396.01 379.33 392.95 377.82 392.74 376.39 394.13 373.89 394.87 368.33 391.76 361.13 395.73 359.66 397.49 361.99 400.88 361.7 403.78 363.63 407.01 362.6 409.1 348.05 397.65 345.31 398.02 341.34 402.68 339.46 407.63 336.19 408.57 334.76 420.88 340.69 432.77 340.81 444.59 337.29 450.64 337.09 455.06 335.08 459.89 332.71 462.79 325.52 467.61 323.02 470.84 327.23 471.01 337.01 473.38 335.74 482.83 332.47 484.01 333.41 487.28 332.51 489.16 328.3 493.09 328.17 494.23 329.24 496.61 337.01 504.17 339.13 512.35 338.23 516.48 337.78 516.93 336.64 515.01 334.88 514.11 332.22 514.27 329.36 516.64 327.4 516.28 323.92 510.71 322.12 509.45 319.18 509.81 315.95 513.99 305.48 511.65 303.43 512.19 300.29 513 Z" fill="#D21034" stroke="#000000" stroke-width="1" stroke-opacity="1" fill-opacity="0"/>
</g>
<g id="pasted2">
<circle cx="65.39" cy="16.33" r="22" fill="#ffffff" fill-opacity="1" stroke-opacity="1" stroke-width="4" stroke="#000000"/>
<circle cx="550.58" cy="653.04" r="22" fill="#ffffff" fill-opacity="1" stroke-opacity="1" stroke-width="4" stroke="#000000"/>
<circle cx="473.18" cy="1145.59" r="22" fill="#ffffff" fill-opacity="1" stroke-opacity="1" stroke-width="4" stroke="#000000"/>
<circle cx="312.1" cy="1730.07" r="22" fill="#ffffff" fill-opacity="1" stroke-opacity="1" stroke-width="4" stroke="#000000"/>
<circle cx="712.52" cy="2008.21" r="22" fill="#ffffff" fill-opacity="1" stroke-opacity="1" stroke-width="4" stroke="#000000"/>
</g>
</svg>